<svg xmlns="http://www.w3.org/2000/svg" xmlns:xlink="http://www.w3.org/1999/xlink" width="394" height="466">
  <defs>
    <linearGradient id="a" x1="50%" x2="50%" y1="100%" y2="0%">
      <stop offset="0%" stop-color="#8B60ED"/>
      <stop offset="100%" stop-color="#B372BD"/>
    </linearGradient>
    <radialGradient id="b" cx="52.436%" cy="42.955%" r="218.844%" fx="52.436%" fy="42.955%" gradientTransform="matrix(-.16502 0 0 -.21136 .61 .52)">
      <stop offset="0%" stop-color="#172743"/>
      <stop offset="100%" stop-opacity="0"/>
    </radialGradient>
    <linearGradient id="c" x1="54.872%" x2="54.872%" y1="62.175%" y2="100%">
      <stop offset="0%" stop-color="#1A273E"/>
      <stop offset="100%" stop-color="#2E4469"/>
    </linearGradient>
    <linearGradient id="d" x1="30.414%" x2="50%" y1="31.624%" y2="68.376%">
      <stop offset="0%" stop-color="#5B79A2"/>
      <stop offset="100%" stop-color="#2E4469"/>
    </linearGradient>
    <linearGradient id="e" x1="98.741%" x2="1.259%" y1="48.741%" y2="48.741%">
      <stop offset="0%" stop-color="#21C8F6"/>
      <stop offset="100%" stop-color="#637BFF"/>
    </linearGradient>
    <linearGradient id="f" x1="34.594%" x2="60.398%" y1="40.953%" y2="55.694%">
      <stop offset="0%" stop-color="#5B79A2"/>
      <stop offset="100%" stop-color="#2E4469"/>
    </linearGradient>
    <linearGradient id="g" x1="60.345%" x2="68.087%" y1="47.191%" y2="54.023%">
      <stop offset="0%" stop-color="#5B79A2"/>
      <stop offset="100%" stop-color="#2E4469"/>
    </linearGradient>
    <linearGradient id="h" x1="12.8%" x2="107.421%" y1="46.721%" y2="53.239%">
      <stop offset="0%" stop-color="#587CB9"/>
      <stop offset="100%" stop-color="#2E4469" stop-opacity="0"/>
    </linearGradient>
    <linearGradient id="i" x1="4.47%" x2="68.52%" y1="46.97%" y2="53.03%">
      <stop offset="0%" stop-color="#405A7C"/>
      <stop offset="100%" stop-color="#20304C"/>
    </linearGradient>
    <linearGradient id="j" x1="75.874%" x2="92.229%" y1="34.347%" y2="96.254%">
      <stop offset="0%" stop-color="#5B79A2"/>
      <stop offset="100%" stop-color="#2E4469"/>
    </linearGradient>
    <linearGradient id="k" x1="8.301%" x2="112.118%" y1="0%" y2="133.334%">
      <stop offset="0%" stop-color="#5B79A2"/>
      <stop offset="100%" stop-color="#2E4469"/>
    </linearGradient>
    <linearGradient id="l" x1="125.306%" x2="26.535%" y1="116.086%" y2="5.536%">
      <stop offset="0%" stop-color="#76E1FF"/>
      <stop offset="100%" stop-color="#637BFF" stop-opacity="0"/>
    </linearGradient>
    <linearGradient id="m" x1="98.741%" x2="1.259%" y1="48.741%" y2="48.741%">
      <stop offset="0%" stop-color="#21C8F6"/>
      <stop offset="100%" stop-color="#637BFF"/>
    </linearGradient>
    <linearGradient id="n" x1="12.205%" x2="108.596%" y1="43.089%" y2="56.911%">
      <stop offset="0%" stop-color="#1A273E"/>
      <stop offset="100%" stop-color="#2E4469"/>
    </linearGradient>
    <path id="o" d="M40.6 19.285h73.442c7.5 0 13.58 6.08 13.58 13.58v56.519a13.58 13.58 0 0 1-8.762 12.696c-8.698 3.3-21.968 4.951-39.811 4.951-18.917 0-33.323-1.855-43.217-5.564A13.58 13.58 0 0 1 27.02 88.75V32.865c0-7.5 6.08-13.58 13.58-13.58z"/>
    <linearGradient id="q" x1="153.548%" x2="24.379%" y1="133.259%" y2="16.174%">
      <stop offset="0%" stop-color="#76E1FF"/>
      <stop offset="100%" stop-color="#637BFF" stop-opacity="0"/>
    </linearGradient>
    <path id="p" d="M40.6 19.285h73.442c7.5 0 13.58 6.08 13.58 13.58v56.519a13.58 13.58 0 0 1-8.762 12.696c-8.698 3.3-21.968 4.951-39.811 4.951-18.917 0-33.323-1.855-43.217-5.564A13.58 13.58 0 0 1 27.02 88.75V32.865c0-7.5 6.08-13.58 13.58-13.58z"/>
    <linearGradient id="r" x1="12.8%" x2="107.421%" y1="1.858%" y2="97.554%">
      <stop offset="0%" stop-color="#587CB9"/>
      <stop offset="100%" stop-color="#2E4469" stop-opacity="0"/>
    </linearGradient>
    <linearGradient id="v" x1="98.741%" x2="1.259%" y1="48.741%" y2="48.741%">
      <stop offset="0%" stop-color="#21C8F6"/>
      <stop offset="100%" stop-color="#637BFF"/>
    </linearGradient>
    <path id="u" d="M45.877 35.064h61.817c6.373 0 11.54 5.166 11.54 11.539 0 6.373-5.167 11.54-11.54 11.54H45.877c-6.373 0-11.54-5.167-11.54-11.54 0-6.373 5.167-11.54 11.54-11.54z"/>
    <filter id="t" width="149.5%" height="282%" x="-24.7%" y="-65%" filterUnits="objectBoundingBox">
      <feOffset dy="6" in="SourceAlpha" result="shadowOffsetOuter1"/>
      <feGaussianBlur in="shadowOffsetOuter1" result="shadowBlurOuter1" stdDeviation="6"/>
      <feColorMatrix in="shadowBlurOuter1" values="0 0 0 0 0.0115609217 0 0 0 0 0.467910214 0 0 0 0 1 0 0 0 1 0"/>
    </filter>
    <linearGradient id="w" x1="98.741%" x2="1.259%" y1="48.741%" y2="48.741%">
      <stop offset="0%" stop-color="#21C8F6"/>
      <stop offset="100%" stop-color="#637BFF"/>
    </linearGradient>
    <linearGradient id="x" x1="98.741%" x2="1.259%" y1="48.741%" y2="48.741%">
      <stop offset="0%" stop-color="#21C8F6"/>
      <stop offset="100%" stop-color="#637BFF"/>
    </linearGradient>
    <filter id="y" width="145.9%" height="488.3%" x="-23%" y="-194.2%" filterUnits="objectBoundingBox">
      <feGaussianBlur in="SourceGraphic" stdDeviation="4.158"/>
    </filter>
    <linearGradient id="A" x1="50%" x2="50%" y1="0%" y2="97.483%">
      <stop offset="0%" stop-color="#21C8F6"/>
      <stop offset="100%" stop-color="#637BFF"/>
    </linearGradient>
    <path id="z" d="M98.651 93.408c-.03-4.84-2.025-9.232-5.224-12.416-3.178-3.164-7.544-5.135-12.351-5.165"/>
    <linearGradient id="B" x1="20.688%" x2="69.724%" y1="-161.748%" y2="17.569%">
      <stop offset="0%" stop-color="#5B79A2"/>
      <stop offset="100%" stop-color="#253B61"/>
    </linearGradient>
    <linearGradient id="C" x1="57.997%" x2="50%" y1="316.497%" y2="0%">
      <stop offset="0%" stop-color="#5B79A2"/>
      <stop offset="100%" stop-color="#2E4469"/>
    </linearGradient>
    <linearGradient id="D" x1="4.47%" x2="117.825%" y1="21.735%" y2="97.108%">
      <stop offset="0%" stop-color="#5B79A2"/>
      <stop offset="100%" stop-color="#2E4469"/>
    </linearGradient>
    <linearGradient id="E" x1="4.696%" x2="117.489%" y1="0%" y2="133.334%">
      <stop offset="0%" stop-color="#5B79A2"/>
      <stop offset="100%" stop-color="#2E4469"/>
    </linearGradient>
    <linearGradient id="F" x1="-24.308%" y1="-80.777%" y2="29.97%">
      <stop offset="0%" stop-color="#5B79A2"/>
      <stop offset="100%" stop-color="#2E4469"/>
    </linearGradient>
    <linearGradient id="G" x1="50%" x2="50%" y1="100%" y2="0%">
      <stop offset="0%" stop-color="#8B60ED"/>
      <stop offset="100%" stop-color="#B372BD"/>
    </linearGradient>
    <linearGradient id="H" x1="50%" x2="50%" y1="100%" y2="0%">
      <stop offset="0%" stop-color="#8B60ED"/>
      <stop offset="100%" stop-color="#B372BD"/>
    </linearGradient>
    <filter id="I" width="185.6%" height="185.4%" x="-42.8%" y="-42.7%" filterUnits="objectBoundingBox">
      <feGaussianBlur in="SourceGraphic" stdDeviation="2.156"/>
    </filter>
    <linearGradient id="J" x1="50%" x2="50%" y1="100%" y2="0%">
      <stop offset="0%" stop-color="#A987F7"/>
      <stop offset="100%" stop-color="#B372BD"/>
    </linearGradient>
    <linearGradient id="K" x1="12.393%" x2="108.306%" y1="0%" y2="100%">
      <stop offset="0%" stop-color="#80A4D5"/>
      <stop offset="100%" stop-color="#2E4469"/>
    </linearGradient>
    <linearGradient id="L" x1="58.037%" x2="50%" y1="66.739%" y2="46.859%">
      <stop offset="0%" stop-color="#5B79A2"/>
      <stop offset="100%" stop-color="#2E4469"/>
    </linearGradient>
    <linearGradient id="M" x1="4.47%" x2="117.825%" y1="46.859%" y2="55.234%">
      <stop offset="0%" stop-color="#5B79A2"/>
      <stop offset="100%" stop-color="#2E4469"/>
    </linearGradient>
    <linearGradient id="N" x1="12.205%" x2="108.596%" y1="47.371%" y2="52.629%">
      <stop offset="0%" stop-color="#80A4D5"/>
      <stop offset="100%" stop-color="#2E4469"/>
    </linearGradient>
    <linearGradient id="O" x1="50%" x2="50%" y1="100%" y2="0%">
      <stop offset="0%" stop-color="#8B60ED"/>
      <stop offset="100%" stop-color="#B372BD"/>
    </linearGradient>
    <linearGradient id="P" x1="50%" x2="50%" y1="100%" y2="0%">
      <stop offset="0%" stop-color="#8B60ED"/>
      <stop offset="100%" stop-color="#B372BD"/>
    </linearGradient>
    <linearGradient id="Q" x1="50%" x2="50%" y1="100%" y2="0%">
      <stop offset="0%" stop-color="#8B60ED" stop-opacity=".142"/>
      <stop offset="100%" stop-color="#B372BD"/>
    </linearGradient>
  </defs>
  <g fill="none" fill-rule="evenodd" opacity=".399" style="mix-blend-mode:luminosity" transform="translate(-68 -2)">
    <path fill="#FFF" d="M103.154 327.533l77.305 12.244c16.291 2.58 27.406 17.88 24.826 34.17-2.58 16.292-17.879 27.407-34.17 24.826L93.81 386.53c-16.291-2.58-27.406-17.878-24.826-34.17 2.58-16.29 17.879-27.406 34.17-24.826z"/>
    <path fill="url(#a)" d="M59.91 316.853L261.196 200.12 59.91 83.384v233.47zM.18 365.736V34.501a29.949 29.949 0 0 1 3.833-18.175C12.23 2.032 30.475-2.894 44.768 5.32l.1.058 290.636 168.553c9.662 5.603 15.043 15.76 14.996 26.187.047 10.426-5.334 20.584-14.996 26.187L44.87 394.859c-14.261 8.27-32.527 3.414-40.798-10.847l-.058-.1A29.949 29.949 0 0 1 .18 365.736z" transform="rotate(-81 254.987 154.073)"/>
    <g style="mix-blend-mode:luminosity" transform="rotate(-15 763.102 86.757)">
      <ellipse cx="160.508" cy="299.31" fill="url(#b)" opacity=".65" rx="156.979" ry="25.905" transform="rotate(13 160.508 299.31)"/>
      <path fill="url(#c)" d="M82.377 151.459H241.69c9.642 0 17.46 7.817 17.46 17.46 0 .92-.073 1.839-.218 2.748l-12.625 79.201c-2.702 16.95-17.32 29.423-34.484 29.423h-99.58c-17.164 0-31.783-12.473-34.484-29.423l-12.625-79.201c-1.518-9.522 4.97-18.472 14.493-19.99a17.46 17.46 0 0 1 2.749-.218z"/>
      <path fill="url(#d)" d="M76.93 143.132h170.208c9.642 0 17.46 7.817 17.46 17.46a17.5 17.5 0 0 1-.266 3.03l-13.027 73.93c-2.941 16.691-17.442 28.86-34.39 28.86H107.152c-16.947 0-31.448-12.169-34.39-28.86l-13.027-73.93c-1.673-9.497 4.669-18.552 14.165-20.225 1-.177 2.014-.265 3.03-.265z"/>
      <path fill="#243552" d="M111.636 205.586h99.094a2.653 2.653 0 1 1 0 5.307h-99.094a2.653 2.653 0 0 1 0-5.307z"/>
      <path fill="url(#e)" d="M111.636 215.301h99.094a2.653 2.653 0 0 1 0 5.307h-99.094a2.653 2.653 0 0 1 0-5.307z"/>
      <path fill="#243552" d="M113.025 225.016h99.095a2.653 2.653 0 0 1 0 5.307h-99.095a2.653 2.653 0 0 1 0-5.307zm0 9.715h99.095a2.653 2.653 0 0 1 0 5.307h-99.095a2.653 2.653 0 0 1 0-5.307z"/>
      <path fill="url(#f)" d="M105.97 144.52h114.285c9.643 0 17.46 7.817 17.46 17.46a17.46 17.46 0 0 1-.815 5.268l-1.698 5.365a34.92 34.92 0 0 1-33.29 24.38h-77.599a34.92 34.92 0 0 1-33.291-24.38l-1.698-5.365c-2.91-9.193 2.183-19.004 11.376-21.914a17.46 17.46 0 0 1 5.27-.814z"/>
      <path fill="url(#g)" d="M78.36 144.52h168.75c9.643 0 17.46 7.817 17.46 17.46 0 2.39-.49 4.755-1.442 6.948l-3.056 7.043a34.92 34.92 0 0 1-32.034 21.022H97.433a34.92 34.92 0 0 1-32.035-21.022l-3.055-7.043c-3.838-8.846.222-19.129 9.068-22.966a17.46 17.46 0 0 1 6.949-1.442z"/>
      <path fill="url(#h)" d="M77.807 144.52h168.75-168.75zm185.32 11.94c.578 1.734.89 3.59.89 5.52 0 2.39-.49 4.755-1.442 6.948l-3.055 7.043a34.92 34.92 0 0 1-32.035 21.022H96.88a34.92 34.92 0 0 1-32.034-21.022l-3.056-7.043a17.395 17.395 0 0 1-.553-12.452 15.074 15.074 0 0 0 1.346 10.117l1.628 3.158a34.92 34.92 0 0 0 31.037 18.915h133.87a34.92 34.92 0 0 0 31.036-18.915l1.628-3.158a15.136 15.136 0 0 0 1.683-6.937c0-1.097-.117-2.166-.338-3.197z"/>
      <path fill="url(#i)" d="M140.033 151.459h47.447a17.46 17.46 0 0 1 11.485 4.31l7.762 6.779a6.325 6.325 0 0 1-4.161 11.089h-77.62a6.325 6.325 0 0 1-4.16-11.09l7.761-6.778a17.46 17.46 0 0 1 11.486-4.31z"/>
      <path fill="url(#j)" d="M64.42 103.637h29.483c7.5 0 13.58 6.08 13.58 13.58v33.14a7.76 7.76 0 0 1-7.76 7.76H58.6a7.76 7.76 0 0 1-7.76-7.76v-33.14c0-7.5 6.08-13.58 13.58-13.58z" transform="rotate(5 40.562 1091.99)"/>
      <g transform="rotate(8 36.831 738.525)">
        <path fill="url(#k)" d="M43.945 0h65.841c16.071 0 29.1 13.028 29.1 29.1v65.594c0 19.286-15.634 34.92-34.92 34.92h-54.2c-19.286 0-34.92-15.634-34.92-34.92V29.1C14.845 13.03 27.874 0 43.945 0z"/>
        <path stroke="url(#l)" stroke-width="2.096" d="M43.945 1.048c-15.493 0-28.052 12.559-28.052 28.051v65.595c0 18.707 15.165 33.872 33.872 33.872h54.202c18.706 0 33.87-15.165 33.87-33.872V29.1c0-15.492-12.558-28.051-28.05-28.051H43.944z"/>
        <ellipse cx="40.665" cy="11.089" fill="url(#m)" rx="3.906" ry="3.857"/>
        <path fill="url(#n)" d="M17.28 75.455V86.21c0 19.286 15.634 34.92 34.92 34.92h49.467c19.285 0 34.919-15.634 34.919-34.92V25.14v70.714c0 19.285-15.634 34.919-34.92 34.919H52.2c-19.285 0-34.919-15.634-34.919-34.92V52.709v22.747z"/>
        <use fill="#243552" xlink:href="#o"/>
        <mask id="s" fill="#fff">
          <use xlink:href="#p"/>
        </mask>
        <path stroke="url(#q)" stroke-width="2.096" d="M40.6 20.333c-6.922 0-12.533 5.61-12.533 12.532V88.75c0 5.224 3.241 9.9 8.133 11.734 9.756 3.658 24.046 5.498 42.849 5.498 17.727 0 30.884-1.636 39.439-4.882a12.532 12.532 0 0 0 8.086-11.717v-56.52c0-6.92-5.611-12.531-12.532-12.531H40.599z"/>
        <ellipse cx="55.341" cy="35.677" fill="url(#r)" mask="url(#s)" rx="55.666" ry="54.962"/>
        <use fill="#000" filter="url(#t)" xlink:href="#u"/>
        <use fill="url(#v)" xlink:href="#u"/>
        <g transform="rotate(-4 400.028 1.17)">
          <ellipse cx="37.37" cy="28.525" fill="url(#w)" opacity=".398" rx="27.404" ry="27.285"/>
          <ellipse cx="108.372" cy="28.525" fill="url(#w)" opacity=".398" rx="27.404" ry="27.285"/>
          <path fill="#243552" stroke="#243552" stroke-width="1.94" d="M107.782 54.325c-14.004 0-25.356-11.273-25.356-25.18 0-13.906 11.352-25.179 25.356-25.179 14.004 0 25.357 11.273 25.357 25.18 0 13.906-11.353 25.179-25.357 25.179zm-70.804 0c-14.004 0-25.356-11.273-25.356-25.18 0-13.906 11.352-25.179 25.356-25.179 14.005 0 25.356 11.273 25.356 25.18 0 13.906-11.351 25.179-25.356 25.179zm97.603-40.624c-2.118-2.426-6.14-5.57-8.548-7.368-.62-.49-1.254-.96-1.913-1.4l-.042-.03v.003A29.355 29.355 0 0 0 107.783 0a29.363 29.363 0 0 0-20.79 8.573c-2.572 2.388-4.79 5.001-7.084 7.562-2.904 3.246-4.623 1.653-7.528 1.653-2.904 0-4.624 1.593-7.528-1.653-2.293-2.56-4.512-5.174-7.085-7.562C52.453 3.278 45.012 0 36.888 0c-6.03 0-11.992 1.809-16.385 4.906v-.004l.046.03c-.66.44-1.252.91-1.872 1.401-2.409 1.798-6.534 4.942-8.653 7.368C6.878 17.307 0 17.547 0 17.547V25s4.116-.24 5.447 1.322c.787.922 1.635 5.362 3.02 10.007.422 1.655 1.023 3.25 1.717 4.779.648 1.52 1.406 2.927 2.271 4.082l.01-.008a29.38 29.38 0 0 0 24.509 13.11 29.363 29.363 0 0 0 26.74-17.126l.022-.029.069-.112c2.106-3.551 4.228-13.277 5.186-14.823.968-1.563 3.39-1.683 3.39-1.683s2.42.12 3.388 1.683c.958 1.546 3.08 11.272 5.186 14.823l.068.112.022.029a29.36 29.36 0 0 0 26.737 17.126 29.37 29.37 0 0 0 24.506-13.11l.002.008c.866-1.155 1.608-2.562 2.255-4.082a28.773 28.773 0 0 0 1.688-4.78c1.383-4.644 2.162-9.084 2.947-10.006 1.332-1.563 5.316-1.322 5.316-1.322v-7.452s-6.768-.24-9.915-3.846z"/>
        </g>
        <path fill="url(#x)" d="M36.042 4.164L15.283 43.718l16.462 10.41L52.727 9.714zm70.858 0L86.143 43.718l16.462 10.41 20.981-44.413z" opacity=".309" transform="rotate(-4 400.028 1.17)"/>
        <path fill="#00FFEC" d="M52.833 43.391h47.905a3.212 3.212 0 1 1 0 6.424H52.833a3.212 3.212 0 0 1 0-6.424z" filter="url(#y)"/>
        <g stroke-linecap="round" transform="rotate(126 89.864 84.618)">
          <use stroke="#2E4469" stroke-width="11.64" xlink:href="#z"/>
          <use stroke="url(#A)" stroke-width="2.91" xlink:href="#z"/>
        </g>
        <path fill="#243552" d="M90.15 13.692h-3.14a1.55 1.55 0 0 1-1.555-1.543 1.55 1.55 0 0 1 1.556-1.542h3.138c.86 0 1.556.69 1.556 1.542a1.55 1.55 0 0 1-1.556 1.543zm5.859-4.242H92.87a1.55 1.55 0 0 1-1.555-1.543 1.55 1.55 0 0 1 1.555-1.543h3.139c.86 0 1.556.69 1.556 1.543a1.55 1.55 0 0 1-1.556 1.543zm16.013 4.242H94.834c-.865 0-1.566-.69-1.566-1.543 0-.852.701-1.542 1.566-1.542h17.18c.866 0 1.567.69 1.567 1.542 0 .853-.701 1.543-1.566 1.543h.007zm5.791-4.242h-17.058c-.899 0-1.628-.691-1.628-1.543s.73-1.543 1.628-1.543h17.058c.899 0 1.628.69 1.628 1.543 0 .852-.73 1.543-1.628 1.543z"/>
      </g>
    </g>
    <g style="mix-blend-mode:luminosity" transform="rotate(4 -587.848 1759.287)">
      <g fill-rule="nonzero">
        <path fill="url(#B)" stroke="#2E4469" stroke-width="1.1" d="M15.566.54H3.856C2.023.54.538 2.043.538 3.895v17.85a8 8 0 0 0 8 8h2.343a8 8 0 0 0 8-8V3.895c0-1.852-1.485-3.353-3.316-3.353z" transform="rotate(-51 29.77 -16.611)"/>
        <path fill="#FFF" d="M37.83 4.64a3.283 3.283 0 0 0-2.068 1.184l-7.37 9.1c-1.153 1.424-.92 3.522.519 4.688L47.32 34.519l-.68.838L26.55 19.09c-1.439-1.166-1.67-3.264-.518-4.687l7.37-9.101c1.083-1.339 3.006-1.603 4.429-.66z" opacity=".1"/>
      </g>
      <path fill="url(#C)" fill-rule="nonzero" d="M59.959 23.898H48.248c-1.831 0-3.316.945-3.316 2.111v16.277h18.342V26.009c0-1.166-1.484-2.111-3.315-2.111z" opacity=".426" transform="rotate(-180 54.103 33.092)"/>
      <path fill="url(#D)" fill-rule="nonzero" d="M41.695 35.796H67.59v19.47H41.695z"/>
      <ellipse cx="54.103" cy="82.847" fill="url(#E)" fill-rule="nonzero" rx="36.145" ry="36.235"/>
      <g transform="translate(23.353 65.342)">
        <path fill="url(#F)" fill-rule="nonzero" stroke="#2E4469" stroke-width="1.1" d="M4.24 1.822A30.808 30.808 0 0 0 0 17.466c0 17.047 13.767 30.866 30.75 30.866S61.5 34.512 61.5 17.466c0-5.71-1.546-11.057-4.24-15.644C54.737-.222 48.863-.546 39.638.849c-6.463.977-13.737 3.658-18.62 4.45C14.585 6.34 8.992 5.181 4.239 1.821z"/>
        <ellipse cx="16.724" cy="28.322" fill="url(#G)" fill-rule="nonzero" stroke="#2E4469" stroke-width="1.1" rx="7.013" ry="7.031"/>
        <ellipse cx="25.895" cy="39.679" fill="url(#H)" fill-rule="nonzero" stroke="#2E4469" stroke-width="1.1" rx="3.237" ry="3.245"/>
        <ellipse cx="24.726" cy="12.548" fill="#BC5AEC" filter="url(#I)" rx="7.553" ry="7.571"/>
        <ellipse cx="26.16" cy="12.419" fill="url(#J)" rx="4.855" ry="4.867"/>
        <path fill="#FFF" fill-opacity=".2" d="M23.222 16.205a4.804 4.804 0 0 1-1.918-3.846A4.801 4.801 0 0 1 26.1 7.552c1.568 0 2.961.755 3.836 1.923a4.766 4.766 0 0 0-2.877-.962 4.801 4.801 0 0 0-4.795 4.807c0 1.083.356 2.081.958 2.885z"/>
      </g>
      <path fill="url(#K)" fill-rule="nonzero" d="M29.09 109.004c-6.86-6.595-11.132-15.876-11.132-26.157 0-20.012 16.183-36.235 36.145-36.235 10.256 0 19.514 4.282 26.092 11.16-6.493-6.242-15.306-10.078-25.013-10.078-19.962 0-36.145 16.223-36.145 36.235a36.16 36.16 0 0 0 10.053 25.075z"/>
      <path fill="url(#L)" fill-rule="nonzero" d="M41.695 35.796H67.59v6.49H41.695z"/>
      <path fill="url(#M)" fill-rule="nonzero" d="M70.584 26.061H38.7c-3.113 0-5.638 2.421-5.638 5.408 0 2.987 2.525 5.409 5.638 5.409h31.883c3.114 0 5.638-2.422 5.638-5.409 0-2.986-2.524-5.408-5.638-5.408z"/>
      <path fill="url(#N)" fill-rule="nonzero" d="M75.158 28.307a5.766 5.766 0 0 0-3.495-1.164H39.78c-3.114 0-5.638 2.421-5.638 5.408a5.24 5.24 0 0 0 1.064 3.162c-1.305-.99-2.143-2.523-2.143-4.244 0-2.987 2.525-5.408 5.638-5.408h31.883c1.883 0 3.55.886 4.574 2.246z"/>
    </g>
    <path fill="url(#O)" d="M193.98 47.272c3.866 0 10.012-7.319 10.012-11.119s-3.134-6.88-7-6.88-7 3.08-7 6.88.122 11.12 3.988 11.12z"/>
    <ellipse cx="183.789" cy="13.322" fill="url(#P)" rx="8.844" ry="11.322" transform="rotate(-5 183.79 13.322)"/>
    <path fill="url(#Q)" d="M177.74 75.272c3.936 0 14.252-9.477 14.252-13.22 0-3.745-3.19-6.78-7.126-6.78-3.935 0-7.125 3.035-7.125 6.78 0 3.743-3.935 13.22 0 13.22z"/>
  </g>
</svg>
