<svg xmlns="http://www.w3.org/2000/svg" width="167" height="166" viewBox="0 0 167 166">
    <defs>
        <linearGradient id="a" x1="50%" x2="50%" y1="0%" y2="97.483%">
            <stop offset="0%" stop-color="#21C8F6"/>
            <stop offset="100%" stop-color="#637BFF"/>
        </linearGradient>
    </defs>
    <path fill="url(#a)" fill-rule="evenodd" d="M137.449 129.623v48.816l110.376-65.872L137.45 46.695v15.22c0 9.045-7.333 16.378-16.377 16.378-9.045 0-16.378-7.333-16.378-16.377V19.067a17.215 17.215 0 0 1 .432-6.02C106.822 5.81 113.317.421 121.072.421c3.673 0 7.064 1.21 9.796 3.252l157.5 93.995c5.423 3.236 8.443 8.99 8.428 14.899.015 5.91-3.005 11.663-8.428 14.9l-158.963 94.867c-7.738 4.618-17.756 2.089-22.374-5.65a17.208 17.208 0 0 1-2.337-10.617v-76.444H75.692c-9.35 0-16.929-7.579-16.929-16.928 0-9.35 7.58-16.929 16.929-16.929h90.76c9.349 0 16.928 7.58 16.928 16.929 0 9.349-7.58 16.928-16.929 16.928H137.45zm-106.909 0H17.337c-9.35 0-16.929-7.579-16.929-16.928 0-9.35 7.58-16.929 16.929-16.929H30.54c9.35 0 16.929 7.58 16.929 16.929 0 9.349-7.58 16.928-16.929 16.928z" opacity=".185" style="mix-blend-mode:luminosity" transform="rotate(-45 60.846 130.678)"/>
</svg>
