<svg xmlns="http://www.w3.org/2000/svg" width="231" height="202">
  <defs>
    <linearGradient id="a" x1="50%" x2="50%" y1="0%" y2="97.483%">
      <stop offset="0%" stop-color="#21C8F6"/>
      <stop offset="100%" stop-color="#637BFF"/>
    </linearGradient>
    <linearGradient id="b" x1="50%" x2="50%" y1="0%" y2="97.483%">
      <stop offset="0%" stop-color="#21C8F6"/>
      <stop offset="100%" stop-color="#637BFF"/>
    </linearGradient>
    <linearGradient id="c" x1="50%" x2="50%" y1="0%" y2="97.483%">
      <stop offset="0%" stop-color="#21C8F6"/>
      <stop offset="100%" stop-color="#637BFF"/>
    </linearGradient>
    <linearGradient id="d" x1="50%" x2="50%" y1="0%" y2="97.483%">
      <stop offset="0%" stop-color="#21C8F6"/>
      <stop offset="100%" stop-color="#637BFF"/>
    </linearGradient>
    <linearGradient id="e" x1="50%" x2="50%" y1="0%" y2="97.483%">
      <stop offset="0%" stop-color="#21C8F6"/>
      <stop offset="100%" stop-color="#637BFF"/>
    </linearGradient>
    <linearGradient id="f" x1="50%" x2="50%" y1="0%" y2="97.483%">
      <stop offset="0%" stop-color="#21C8F6"/>
      <stop offset="100%" stop-color="#637BFF"/>
    </linearGradient>
    <linearGradient id="g" x1="95.282%" x2="0%" y1="44.941%" y2="55.992%">
      <stop offset="0%" stop-color="#0091FF" stop-opacity="0"/>
      <stop offset="100%" stop-color="#53B5FF"/>
    </linearGradient>
    <linearGradient id="h" x1="97.119%" x2="15.98%" y1="118.715%" y2="7.784%">
      <stop offset="0%" stop-color="#0091FF" stop-opacity="0"/>
      <stop offset="100%" stop-color="#53B5FF"/>
    </linearGradient>
    <linearGradient id="i" x1="29.332%" x2="35.309%" y1="10.241%" y2="100.969%">
      <stop offset="0%" stop-color="#0091FF" stop-opacity="0"/>
      <stop offset="100%" stop-color="#53B5FF"/>
    </linearGradient>
  </defs>
  <g fill="none" fill-rule="evenodd" opacity=".399" style="mix-blend-mode:luminosity">
    <path fill="#FFF" d="M139.304 70.77l-8.383 3.732a7.51 7.51 0 0 1-1.81.547l-18.315 8.155a7.522 7.522 0 0 1-1.618.979L83.312 95.699l51.371 40.037 4.621-64.966zm13.109-17.41a7.498 7.498 0 0 1 2.764 6.367l-6.444 90.6a7.475 7.475 0 0 1-1.597 4.654 7.51 7.51 0 0 1-2.884 2.247 7.51 7.51 0 0 1-3.6.64 7.475 7.475 0 0 1-4.526-1.927l-71.641-55.835a7.508 7.508 0 0 1-1.71-9.966 7.476 7.476 0 0 1 3.57-3.324l22.075-9.828a7.522 7.522 0 0 1 1.618-.98l35.902-15.984a7.522 7.522 0 0 1 1.81-.547l16.593-7.388a7.51 7.51 0 0 1 8.07 1.27z" opacity=".107"/>
    <path fill="url(#a)" d="M43.935 11.624c-2.427 0-4.395-2.55-4.395-5.696S41.508.23 43.935.23c2.427 0 4.395 2.55 4.395 5.697 0 3.146-1.968 5.696-4.395 5.696zm95.51 31.243c-1.177-2.14.082-5.112 2.811-6.637 2.73-1.525 5.896-1.026 7.073 1.114 1.176 2.14-.082 5.111-2.812 6.636-2.729 1.525-5.895 1.027-7.072-1.113zM12.544 117.954c-3.814 0-6.906-2.55-6.906-5.696s3.092-5.696 6.906-5.696c3.814 0 6.906 2.55 6.906 5.696s-3.092 5.696-6.906 5.696z" transform="rotate(17 -29.329 164.1)"/>
    <path fill="url(#b)" d="M9.521 51.51l7.475.006a7.54 7.54 0 0 1 7.534 7.534 7.515 7.515 0 0 1-7.521 7.522l-7.475-.007A7.54 7.54 0 0 1 2 59.031a7.515 7.515 0 0 1 7.521-7.52z" transform="rotate(35 .665 113.321)"/>
    <path fill="url(#b)" d="M9.521 51.51l7.475.006a7.54 7.54 0 0 1 7.534 7.534 7.515 7.515 0 0 1-7.521 7.522l-7.475-.007A7.54 7.54 0 0 1 2 59.031a7.515 7.515 0 0 1 7.521-7.52z" transform="rotate(35 .665 113.321)"/>
    <path fill="url(#c)" d="M158.94 99.218l3.793-.005a7.56 7.56 0 0 1 7.57 7.57l-.001 1.284a7.56 7.56 0 0 1-7.55 7.55l-3.792.005a7.56 7.56 0 0 1-7.57-7.57l.001-1.285a7.56 7.56 0 0 1 7.55-7.549z" transform="rotate(-20 329.668 113.026)"/>
    <path fill="url(#d)" d="M71.046 101.303l52.608-30.935-52.608-30.935v61.87zm-15.612 12.963V26.47a8.006 8.006 0 0 1 1.002-4.806 7.79 7.79 0 0 1 10.725-2.874l75.868 44.612a8.038 8.038 0 0 1 3.966 6.967 8.038 8.038 0 0 1-3.966 6.967l-75.869 44.61a7.79 7.79 0 0 1-10.725-2.873 8.006 8.006 0 0 1-1.002-4.807z" transform="rotate(34 42.936 126.987)"/>
    <path fill="url(#e)" d="M31 17.51a2.67 2.67 0 0 1-1.319 2.316L4.438 34.657a2.592 2.592 0 0 1-3.567-.955 2.66 2.66 0 0 1-.334-1.598v-14.62a2.597 2.597 0 1 1 5.194 0v10.31L23.234 17.51 5.731 7.227v2.336a2.597 2.597 0 0 1-5.194 0V2.917A2.66 2.66 0 0 1 .871 1.32 2.58 2.58 0 0 1 1.952.287 2.586 2.586 0 0 1 3.134.002 2.59 2.59 0 0 1 4.63.476l25.051 14.719A2.67 2.67 0 0 1 31 17.51z" transform="rotate(-23 462.169 -132.29)"/>
    <path fill="#53B5FF" d="M105.86 184.584l-13.325 5.656a2.643 2.643 0 0 1-2.065-4.865l13.325-5.657a2.643 2.643 0 1 1 2.065 4.866zm-19.839 8.421l-2.004.85a2.643 2.643 0 0 1-2.065-4.865l2.004-.85a2.643 2.643 0 1 1 2.065 4.865z"/>
    <path fill="url(#f)" d="M27.702 15.565a2.366 2.366 0 0 1-1.173 2.055L3.961 30.81a2.318 2.318 0 0 1-3.183-.853 2.357 2.357 0 0 1-.298-1.422v-12.98a2.32 2.32 0 0 1 4.642 0v9.151l15.64-9.141-15.64-9.141v2.064a2.32 2.32 0 1 1-4.642 0V2.594c-.05-.477.043-.973.298-1.421A2.314 2.314 0 0 1 2.801.003c.49 0 .943.15 1.317.409L26.53 13.51a2.366 2.366 0 0 1 1.173 2.055z" transform="rotate(-132 102.849 -10.108)"/>
    <path fill="#53B5FF" d="M186.295 40.665l8.672 9.631a2.35 2.35 0 1 1-3.491 3.144l-8.673-9.632a2.35 2.35 0 1 1 3.492-3.143zm12.887 14.312l1.319 1.464a2.35 2.35 0 1 1-3.492 3.144l-1.318-1.464a2.35 2.35 0 0 1 3.491-3.144z"/>
    <path stroke="url(#g)" stroke-linecap="round" stroke-linejoin="round" stroke-width="4" d="M18.638 39.38C35.298 9.617 66.478.372 112.175 11.648" opacity=".173" transform="rotate(17 103.468 168.082)"/>
    <path stroke="url(#h)" stroke-linecap="round" stroke-linejoin="round" stroke-width="4" d="M169.985 40.282c22.66 11.313 36.01 27.499 40.054 48.558" opacity=".173" transform="rotate(17 103.468 168.082)"/>
    <path stroke="url(#i)" stroke-linecap="round" stroke-linejoin="round" stroke-width="4" d="M82.342 201.632c-94.99 27.693-96.795-50.258-58.254-67.062" opacity=".173" transform="rotate(17 103.468 168.082)"/>
  </g>
</svg>
