<svg xmlns="http://www.w3.org/2000/svg" xmlns:xlink="http://www.w3.org/1999/xlink" width="391" height="458"><defs><linearGradient id="k" x1="4.47%" x2="68.52%" y1="0%" y2="100%"><stop offset="0%" stop-color="#405A7C"/><stop offset="100%" stop-color="#20304C"/></linearGradient><linearGradient id="a" x1="54.82%" x2="54.82%" y1="210.408%" y2="8.034%"><stop offset="0%" stop-color="#5B79A2"/><stop offset="100%" stop-color="#2E4469"/></linearGradient><linearGradient id="c" x1="27.523%" x2="92.425%" y1="149.983%" y2="33.309%"><stop offset="0%" stop-color="#627FA5"/><stop offset="100%" stop-color="#415C89"/></linearGradient><linearGradient id="t" x1="50%" x2="50%" y1="0%" y2="97.483%"><stop offset="0%" stop-color="#21C8F6"/><stop offset="100%" stop-color="#637BFF"/></linearGradient><linearGradient id="e" x1="54.872%" x2="54.872%" y1="62.175%" y2="100%"><stop offset="0%" stop-color="#1A273E"/><stop offset="100%" stop-color="#2E4469"/></linearGradient><linearGradient id="f" x1="30.414%" x2="50%" y1="0%" y2="100%"><stop offset="0%" stop-color="#5B79A2"/><stop offset="100%" stop-color="#2E4469"/></linearGradient><linearGradient id="g" x1="98.741%" x2="1.259%" y1="48.741%" y2="48.741%"><stop offset="0%" stop-color="#21C8F6"/><stop offset="100%" stop-color="#637BFF"/></linearGradient><linearGradient id="h" x1="34.594%" x2="60.398%" y1="-29.447%" y2="100%"><stop offset="0%" stop-color="#5B79A2"/><stop offset="100%" stop-color="#2E4469"/></linearGradient><linearGradient id="i" x1="75.874%" x2="92.229%" y1="33.079%" y2="100%"><stop offset="0%" stop-color="#5B79A2"/><stop offset="100%" stop-color="#2E4469"/></linearGradient><linearGradient id="j" x1="12.8%" x2="107.421%" y1=".616%" y2="98.781%"><stop offset="0%" stop-color="#587CB9"/><stop offset="100%" stop-color="#2E4469" stop-opacity="0"/></linearGradient><linearGradient id="b" x1="27.523%" x2="92.425%" y1="149.983%" y2="33.309%"><stop offset="0%" stop-color="#5B79A2"/><stop offset="100%" stop-color="#2E4469"/></linearGradient><linearGradient id="l" x1="4.47%" x2="117.825%" y1="0%" y2="133.334%"><stop offset="0%" stop-color="#5B79A2"/><stop offset="100%" stop-color="#2E4469"/></linearGradient><linearGradient id="m" x1="132.225%" x2="24.379%" y1="116.086%" y2="5.536%"><stop offset="0%" stop-color="#76E1FF"/><stop offset="100%" stop-color="#637BFF" stop-opacity="0"/></linearGradient><linearGradient id="n" x1="12.205%" x2="108.596%" y1="0%" y2="100%"><stop offset="0%" stop-color="#1A273E"/><stop offset="100%" stop-color="#2E4469"/></linearGradient><linearGradient id="q" x1="153.548%" x2="24.379%" y1="159.443%" y2="5.536%"><stop offset="0%" stop-color="#76E1FF"/><stop offset="100%" stop-color="#637BFF" stop-opacity="0"/></linearGradient><linearGradient id="u" x1="83.974%" x2="11.269%" y1="65.221%" y2="-6.398%"><stop offset="0%" stop-color="#21C8F6" stop-opacity="0"/><stop offset="100%" stop-color="#637BFF"/></linearGradient><path id="o" d="M17.195 0h92.872c9.497 0 17.195 7.698 17.195 17.195v71.38c0 7.147-4.422 13.55-11.107 16.08-11.003 4.167-27.782 6.25-50.338 6.25-23.916 0-42.133-2.342-54.648-7.026A17.195 17.195 0 010 87.775v-70.58C0 7.698 7.698 0 17.195 0z"/><path id="p" d="M17.195 0h92.872c9.497 0 17.195 7.698 17.195 17.195v71.38c0 7.147-4.422 13.55-11.107 16.08-11.003 4.167-27.782 6.25-50.338 6.25-23.916 0-42.133-2.342-54.648-7.026A17.195 17.195 0 010 87.775v-70.58C0 7.698 7.698 0 17.195 0z"/><path id="s" d="M146.965 118.078c-.042-6.119-2.567-11.673-6.614-15.7-4.02-4.002-9.544-6.496-15.623-6.537"/><radialGradient id="d" cx="52.436%" cy="42.955%" r="217.092%" fx="52.436%" fy="42.955%" gradientTransform="matrix(-.16635 0 0 -.21136 .612 .52)"><stop offset="0%" stop-color="#433D3D"/><stop offset="100%" stop-opacity="0"/></radialGradient></defs><g fill="none" fill-rule="evenodd" style="mix-blend-mode:luminosity"><path fill="#D9B82E" d="M311.384 66.586s3.788 4.777 11.23 6.049c7.442 1.273 9.914 14.582 9.914 14.582s-3.338 2.82-5.132 1.31c0 0-.944-6.915-4.528-9.333-5.906-3.983-9.966-.339-15.67-11.1l4.186-1.508"/><path fill="url(#a)" d="M236.613 73.141c-2.48-9.27-8.6-9.186-12.506-9.917-3.906-.731-6.69-4.467-6.69-4.467l2.182-1.346c2.062 3.836 8.22 3.865 12.487 5.401 4.268 1.538 6.754 9.347 6.754 9.347-.64.773-2.227.982-2.227.982" opacity=".171" transform="rotate(4 91.221 1380.682)"/><path fill="#D9B82E" d="M332.076 85.313s-.606 1.747-4.952 1.785c0 0-1.31 1.814-.096 5.96.99 3.39 3.038 3.944 3.038 3.944s3.603.757 6.321-2.368c0 0 .892-6.193-4.311-9.321"/><path fill="#D9B82E" d="M329.052 106.025s-.407 2.455-1.126 4.08c1.813.68 4.084 1.19 6.611 1.006.488-1.835.954-5.318-.323-10.362 0 0 1.972 6.1 2.016 10.143a13.09 13.09 0 002.847-.887c-.376-1.384-1.177-3.943-2.645-7.058 0 0 2.349 3.703 3.549 6.614 1.46-.805 2.448-1.799 3.104-2.809a6.869 6.869 0 00-1.554-3.068s1.23.407 2.228 1.774c.835-2.032.597-3.81.597-3.81s-4.49-1.797-7.969-7.014c-3.477-5.218-6.35 1.03-6.35 1.03s-2.064 9.011-6.422 12.11c0 0 1.091.871 2.898 1.73.818-.765 2.107-2.124 2.54-3.48"/><path fill="url(#b)" stroke="#3F567C" stroke-width="4.99" d="M.077 88.802L80.46.287l162.505 40.034-76.333 52.238c-7.528-7.379-22.675-10.272-45.44-8.68-22.767 1.592-41.56 8.196-56.382 19.81L.077 88.803z" transform="rotate(4 91.221 1380.682)"/><path fill="url(#a)" d="M61.479 75.851s6.453-21.022 38.143-29.588c31.688-8.565 59.011 3.81 65.836 11.01l4.84 40.024c-19.722-6.928-38.469-9.513-56.24-7.756-17.772 1.757-34.296 7.84-49.573 18.247L61.48 75.85z" transform="rotate(4 91.221 1380.682)"/><path fill="#0C1215" d="M259.608 96.414l-2.236-29.57c3.612 1.018 7.388 1.618 11.241 1.887 27.809 1.945 59.453-13.34 59.453-13.34l-68.458 41.023" opacity=".167"/><path fill="#2E4469" d="M153.867 103.27l-48.683-14.935s.244.024.701.056c4.317.302 27.709 1.345 46.792-9.674l1.19 24.553" opacity=".471"/><path fill="url(#c)" d="M168.305 87.267s-4.873-5.797-14.032-8.347l-2.324-27.501s7.9 2.46 12.349 7.093c.186.192 4.007 28.755 4.007 28.755" opacity=".338" transform="rotate(4 91.221 1380.682)"/><path fill="#2E4469" d="M153.823 101.327l-.555-24.102s4.356-8.796 11.132-13.396l1.98 27.895s-8.292 1.236-12.557 9.603" opacity=".471"/><path fill="url(#a)" d="M239.626 83.154c-4.384-4.244-2.864-8.727-2.864-8.727 1.057-.005 2.902-.635 2.902-.635a11.9 11.9 0 001.297 6.34c-.74.932-1.145 2.003-1.145 2.003s-.059.383-.19 1.019" opacity=".171" transform="rotate(4 91.221 1380.682)"/><path fill="#C39332" d="M330.51 96.766a5.3 5.3 0 01-.733-.098l-.001-.001c.175-.626.26-1.004.26-1.004s.479-1.04 1.282-1.917c.738 1.711 1.628 2.668 1.628 2.668-.884.37-1.813.395-2.436.352"/><path fill="url(#a)" d="M242.24 96.885c-1.063 0-2.85-.699-2.85-.699.835-2.401.328-5.135.328-5.135-.394 2.253-2.611 4.758-2.611 4.758-.8-.248-2.297-1.251-2.297-1.251 4.165-3.733 5.07-10.597 5.07-10.597.152.01.3.013.443.013 1.859 0 2.938-.725 2.938-.725 3.551 5.873 5.956 12.343 5.956 12.343-.216.233-1.884.647-1.884.647-.573-5.616-4.014-12.415-4.014-12.415l.785 3.997-1.055-2.722c2.348 7.88.998 10.241.998 10.241.208-3.964-1.717-10.202-1.717-10.202 1.619 5.522.274 11.71.274 11.71a1.65 1.65 0 01-.364.037" opacity=".171" transform="rotate(4 91.221 1380.682)"/><g transform="translate(32.485 94.117)"><ellipse cx="175.731" cy="340.933" fill="url(#d)" opacity=".555" rx="175.731" ry="29.233"/><g transform="translate(45.81)"><path fill="url(#e)" d="M34.571 178.1h201.476c12.21 0 22.108 9.898 22.108 22.108 0 1.167-.092 2.331-.276 3.483l-15.953 99.993c-3.423 21.46-21.933 37.25-43.663 37.25H72.356c-21.73 0-40.24-15.79-43.664-37.25l-15.953-99.993c-1.923-12.057 6.292-23.39 18.349-25.315a22.108 22.108 0 013.483-.276z"/><path fill="url(#f)" d="M27.682 167.575h215.255c12.21 0 22.108 9.898 22.108 22.108 0 1.288-.113 2.572-.336 3.84l-16.46 93.333c-3.728 21.13-22.088 36.536-43.545 36.536H65.914c-21.457 0-39.817-15.405-43.544-36.536L5.91 193.523c-2.12-12.024 5.908-23.491 17.932-25.612a22.108 22.108 0 013.84-.336z"/><path fill="url(#e)" d="M135.31 323.392h69.394c21.457 0 39.817-15.405 43.544-36.536l16.46-93.333c.224-1.268.337-2.552.337-3.84 0-12.21-9.898-22.108-22.108-22.108h-14.15c12.21 0 22.108 9.898 22.108 22.108 0 1.15-.09 2.296-.268 3.431l-14.597 92.924c-3.378 21.507-21.91 37.354-43.68 37.354H65.914c-21.457 0-39.817-15.405-43.544-36.536L5.91 193.523c-2.12-12.024 5.908-23.491 17.932-25.612a22.108 22.108 0 013.84-.336H41.83z" opacity=".507"/><path fill="#243552" d="M71.115 246.793h125.36a3.354 3.354 0 010 6.707H71.116a3.354 3.354 0 110-6.707z"/><path fill="url(#g)" d="M71.115 258.98h125.36a3.354 3.354 0 010 6.707H71.116a3.354 3.354 0 110-6.707z"/><path fill="#243552" d="M72.07 270.829h125.36a3.354 3.354 0 010 6.707H72.07a3.354 3.354 0 110-6.707zm0 11.849h125.36a3.354 3.354 0 010 6.707H72.07a3.354 3.354 0 110-6.707z"/><path fill="url(#h)" d="M63.099 168.185h144.498c12.21 0 22.108 9.898 22.108 22.108 0 2.265-.349 4.517-1.033 6.677l-2.115 6.676c-5.822 18.375-22.876 30.862-42.151 30.862H86.29c-19.275 0-36.33-12.487-42.151-30.862l-2.116-6.676c-3.687-11.64 2.759-24.065 14.399-27.753a22.108 22.108 0 016.677-1.032z"/><path fill="url(#i)" d="M28.662 168.185h213.383c12.21 0 22.108 9.898 22.108 22.108 0 3.029-.623 6.026-1.83 8.805l-3.822 8.804a44.216 44.216 0 01-40.558 26.606H52.764a44.216 44.216 0 01-40.558-26.606l-3.822-8.804c-4.863-11.2.274-24.221 11.474-29.084a22.108 22.108 0 018.804-1.83z"/><path fill="url(#j)" d="M28.662 168.185h213.383H28.662zm234.449 15.381a22.095 22.095 0 011.042 6.727c0 3.029-.623 6.026-1.83 8.805l-3.822 8.804a44.216 44.216 0 01-40.558 26.606H52.764a44.216 44.216 0 01-40.558-26.606l-3.822-8.804a22.023 22.023 0 01-.79-15.507 19.046 19.046 0 001.766 12.493l2.044 3.96a44.216 44.216 0 0039.292 23.939h169.315a44.216 44.216 0 0039.292-23.938l2.044-3.961c1.4-2.712 2.13-5.72 2.13-8.772a19.22 19.22 0 00-.366-3.746z"/><path fill="url(#k)" d="M105.977 177.935h60.015c5.345 0 10.51 1.936 14.536 5.45l9.815 8.565a7.993 7.993 0 01-5.256 14.015H86.882a7.993 7.993 0 01-5.255-14.015l9.814-8.565a22.108 22.108 0 0114.536-5.45z"/><path fill="url(#i)" d="M118.43 124.31h37.264c9.497 0 17.195 7.699 17.195 17.196v41.837c0 5.427-4.399 9.826-9.826 9.826h-52.002c-5.426 0-9.825-4.4-9.825-9.826v-41.837c0-9.497 7.698-17.196 17.195-17.196z"/><path fill="url(#l)" d="M92.288 0h83.218c20.35 0 36.847 16.497 36.847 36.847v82.758c0 24.42-19.796 44.216-44.216 44.216h-68.48c-24.42 0-44.216-19.796-44.216-44.216V36.847C55.44 16.497 71.938 0 92.288 0z"/><path stroke="url(#m)" stroke-width="2.654" d="M92.288 1.327c-19.618 0-35.52 15.903-35.52 35.52v82.758c0 23.687 19.202 42.89 42.889 42.89h68.48c23.687 0 42.889-19.203 42.889-42.89V36.847c0-19.617-15.903-35.52-35.52-35.52H92.288z" opacity=".402"/><ellipse cx="88.103" cy="14.015" fill="url(#g)" rx="4.942" ry="4.875"/><path fill="url(#n)" d="M209.444 108.883v12.187c0 24.42-19.797 44.216-44.216 44.216h-62.491c-24.42 0-44.216-19.796-44.216-44.216v-12.187c0 24.42 19.796 44.215 44.216 44.215h62.49c24.42 0 44.217-19.796 44.217-44.215z" opacity=".525"/><g transform="translate(70.841 24.375)"><use fill="#243552" xlink:href="#o"/><mask id="r" fill="#fff"><use xlink:href="#p"/></mask><path stroke="url(#q)" stroke-width="2.654" d="M17.195 1.327c-8.764 0-15.868 7.104-15.868 15.868v70.58a15.868 15.868 0 0010.307 14.862c12.34 4.618 30.411 6.94 54.183 6.94 22.41 0 39.046-2.064 49.869-6.162a15.868 15.868 0 0010.25-14.84v-71.38c0-8.764-7.105-15.868-15.869-15.868H17.195z"/><ellipse cx="35.827" cy="20.718" fill="url(#j)" mask="url(#r)" rx="70.418" ry="69.468"/></g><path fill="url(#g)" d="M99.97 54.843h67.65a7.568 7.568 0 010 15.136H99.97a7.568 7.568 0 110-15.136z" opacity=".2"/><g stroke-linecap="round" transform="rotate(135 135.846 106.96)"><use stroke="#2E4469" stroke-width="14.739" xlink:href="#s"/><use stroke="url(#t)" stroke-width="3.685" xlink:href="#s"/></g><path d="M150.7 17.306h-3.97a1.96 1.96 0 01-1.968-1.95 1.96 1.96 0 011.969-1.95h3.97a1.96 1.96 0 011.968 1.95 1.96 1.96 0 01-1.968 1.95zm7.413-5.362h-3.97a1.96 1.96 0 01-1.968-1.95 1.96 1.96 0 011.968-1.95h3.97a1.96 1.96 0 011.969 1.95 1.96 1.96 0 01-1.969 1.95zm20.257 5.362h-21.743c-1.094 0-1.981-.873-1.981-1.95s.887-1.95 1.981-1.95h21.734c1.094 0 1.981.873 1.981 1.95s-.887 1.95-1.981 1.95h.01zm7.325-5.362h-21.577c-1.138 0-2.06-.873-2.06-1.95s.922-1.95 2.06-1.95h21.577c1.138 0 2.06.873 2.06 1.95s-.922 1.95-2.06 1.95z" fill="#243552"/></g></g><g transform="translate(-62.424 110.658)"><g transform="scale(-1 1) rotate(48 -70.931 -156.743)"><path stroke="url(#u)" stroke-linejoin="round" stroke-width="5.832" d="M207.038 164.797l-96.89-152.566L6.735 68.559"/><ellipse cx="110.727" cy="12.279" fill="url(#t)" rx="12.303" ry="12.279"/><path fill="#FFF" fill-opacity=".2" d="M103.11 21.05a11.669 11.669 0 01-4.686-9.356C98.424 5.236 103.67 0 110.141 0c3.833 0 7.236 1.837 9.374 4.677a11.68 11.68 0 00-7.03-2.338c-6.472 0-11.717 5.235-11.717 11.694 0 2.633.871 5.062 2.343 7.017z"/></g><rect width="14.061" height="38.592" x="182.788" y="32.575" fill="url(#t)" rx="7.02"/></g><g transform="matrix(-1 0 0 1 448.94 140.15)"><g transform="scale(-1 1) rotate(48 -70.4 -156.192)"><path stroke="url(#u)" stroke-linejoin="round" stroke-width="5.832" d="M207.038 115.797L128.67 18.1 43.601 47.873"/><ellipse cx="124.788" cy="19.413" fill="url(#t)" rx="12.303" ry="12.279"/></g><rect width="14.061" height="38.592" x="145.788" y="41.675" fill="url(#t)" rx="7.02"/></g></g></svg>