<svg width="163" height="152" xmlns="http://www.w3.org/2000/svg" xmlns:xlink="http://www.w3.org/1999/xlink"><defs><linearGradient x1="7.206%" y1="35.257%" x2="84.094%" y2="72.55%" id="N"><stop stop-color="#5B79A2" offset="0%"/><stop stop-color="#2E4469" offset="100%"/></linearGradient><linearGradient x1="98.741%" y1="48.741%" x2="1.259%" y2="48.741%" id="z"><stop stop-color="#21C8F6" offset="0%"/><stop stop-color="#637BFF" offset="100%"/></linearGradient><linearGradient x1="54.847%" y1="4.44%" x2="45.122%" y2="95.082%" id="R"><stop stop-color="#21C8F6" stop-opacity=".448" offset="0%"/><stop stop-color="#637BFF" offset="100%"/></linearGradient><linearGradient x1="34.594%" y1="40.953%" x2="60.398%" y2="55.694%" id="f"><stop stop-color="#5B79A2" offset="0%"/><stop stop-color="#2E4469" offset="100%"/></linearGradient><linearGradient x1="0%" y1="50%" y2="50%" id="g"><stop stop-color="#6F90BC" offset="0%"/><stop stop-color="#2E4469" offset="100%"/></linearGradient><linearGradient x1="13.01%" y1="44.97%" x2="50%" y2="56.878%" id="h"><stop stop-color="#57DBFF" offset="0%"/><stop stop-color="#637BFF" stop-opacity="0" offset="100%"/></linearGradient><linearGradient x1="51.668%" y1="33.796%" x2="45.284%" y2="89.539%" id="Q"><stop stop-color="#21C8F6" offset="0%"/><stop stop-color="#637BFF" stop-opacity=".179" offset="100%"/><stop stop-color="#637BFF" stop-opacity=".179" offset="100%"/></linearGradient><linearGradient x1="75.874%" y1="34.347%" x2="92.229%" y2="96.254%" id="k"><stop stop-color="#5B79A2" offset="0%"/><stop stop-color="#2E4469" offset="100%"/></linearGradient><linearGradient x1="48.064%" y1="20.264%" x2="49.389%" y2="94.565%" id="P"><stop stop-color="#21C8F6" offset="0%"/><stop stop-color="#637BFF" offset="100%"/></linearGradient><linearGradient x1="53.637%" y1="4.44%" x2="46.34%" y2="95.082%" id="O"><stop stop-color="#21C8F6" stop-opacity=".448" offset="0%"/><stop stop-color="#637BFF" offset="100%"/></linearGradient><linearGradient x1="38.152%" y1="78.776%" x2="41.989%" y2="102.32%" id="q"><stop stop-color="#55739C" offset="0%"/><stop stop-color="#4179D5" offset="100%"/></linearGradient><linearGradient x1="1.259%" y1="48.741%" x2="98.741%" y2="48.741%" id="r"><stop stop-color="#21C8F6" offset="0%"/><stop stop-color="#637BFF" offset="100%"/></linearGradient><linearGradient x1="98.741%" y1="48.741%" x2="1.259%" y2="48.741%" id="e"><stop stop-color="#21C8F6" offset="0%"/><stop stop-color="#637BFF" offset="100%"/></linearGradient><linearGradient x1="154.902%" y1="138.188%" x2="24.379%" y2="14.184%" id="u"><stop stop-color="#76E1FF" offset="0%"/><stop stop-color="#637BFF" stop-opacity="0" offset="100%"/></linearGradient><linearGradient x1="24.826%" y1="50.185%" x2="38.353%" y2="50.479%" id="M"><stop stop-color="#5B79A2" offset="0%"/><stop stop-color="#2E4469" offset="100%"/></linearGradient><linearGradient x1="13.96%" y1=".616%" x2="105.629%" y2="98.781%" id="v"><stop stop-color="#587CB9" offset="0%"/><stop stop-color="#2E4469" stop-opacity="0" offset="100%"/></linearGradient><linearGradient x1="30.414%" y1="31.624%" x2="50%" y2="68.376%" id="b"><stop stop-color="#5B79A2" offset="0%"/><stop stop-color="#2E4469" offset="100%"/></linearGradient><linearGradient x1="23.875%" y1="74.652%" x2="50%" y2="100%" id="K"><stop stop-color="#223C6F" offset="0%"/><stop stop-color="#0F1C3C" offset="100%"/></linearGradient><linearGradient x1="16.192%" y1="0%" x2="84.563%" y2="94.065%" id="B"><stop stop-color="#57DBFF" offset="0%"/><stop stop-color="#637BFF" stop-opacity="0" offset="100%"/></linearGradient><linearGradient x1="98.741%" y1="48.741%" x2="1.259%" y2="48.741%" id="C"><stop stop-color="#21C8F6" offset="0%"/><stop stop-color="#637BFF" offset="100%"/></linearGradient><linearGradient x1="98.741%" y1="48.741%" x2="1.259%" y2="48.741%" id="D"><stop stop-color="#21C8F6" offset="0%"/><stop stop-color="#637BFF" offset="100%"/></linearGradient><linearGradient x1="48.288%" y1="9.244%" x2="51.364%" y2="112.337%" id="E"><stop stop-color="#5B79A2" offset="0%"/><stop stop-color="#2E4469" offset="100%"/></linearGradient><linearGradient x1="7.206%" y1="9.244%" x2="84.094%" y2="112.337%" id="F"><stop stop-color="#5B79A2" offset="0%"/><stop stop-color="#2E4469" offset="100%"/></linearGradient><linearGradient x1="21.197%" y1="74.652%" x2="50%" y2="100%" id="G"><stop stop-color="#223C6F" offset="0%"/><stop stop-color="#0F1C3C" offset="100%"/></linearGradient><linearGradient x1="57.358%" y1="24.765%" x2="50%" y2="100%" id="H"><stop stop-color="#FA4584" offset="0%"/><stop stop-color="#F3214D" offset="100%"/></linearGradient><filter x="-23%" y="-194.2%" width="145.9%" height="488.3%" filterUnits="objectBoundingBox" id="A"><feGaussianBlur stdDeviation="2.079" in="SourceGraphic"/></filter><filter x="-16.2%" y="-70%" width="132.3%" height="240%" filterUnits="objectBoundingBox" id="m"><feGaussianBlur stdDeviation="2.182" in="SourceGraphic"/></filter><filter x="-22.2%" y="-22.2%" width="144.4%" height="144.4%" filterUnits="objectBoundingBox" id="n"><feGaussianBlur stdDeviation="3.117" in="SourceGraphic"/></filter><filter x="-40%" y="-40%" width="180%" height="180%" filterUnits="objectBoundingBox" id="o"><feGaussianBlur stdDeviation="3.117" in="SourceGraphic"/></filter><filter x="0%" y="0%" width="100%" height="100%" filterUnits="objectBoundingBox" id="j"><feGaussianBlur in="SourceGraphic"/></filter><filter x="-165.9%" y="-202.8%" width="431.8%" height="505.6%" filterUnits="objectBoundingBox" id="S"><feOffset dy="2" in="SourceAlpha" result="shadowOffsetOuter1"/><feGaussianBlur stdDeviation="8.5" in="shadowOffsetOuter1" result="shadowBlurOuter1"/><feColorMatrix values="0 0 0 0 0.203482046 0 0 0 0 0.556751939 0 0 0 0 0.965353261 0 0 0 1 0" in="shadowBlurOuter1" result="shadowMatrixOuter1"/><feMerge><feMergeNode in="shadowMatrixOuter1"/><feMergeNode in="SourceGraphic"/></feMerge></filter><filter x="-25.5%" y="-431.9%" width="150.9%" height="1101.9%" filterUnits="objectBoundingBox" id="c"><feOffset dy="2" in="SourceAlpha" result="shadowOffsetOuter1"/><feGaussianBlur stdDeviation="4.5" in="shadowOffsetOuter1" result="shadowBlurOuter1"/><feColorMatrix values="0 0 0 0 0.0115609217 0 0 0 0 0.467910214 0 0 0 0 1 0 0 0 1 0" in="shadowBlurOuter1"/></filter><filter x="-24.7%" y="-65%" width="149.5%" height="282%" filterUnits="objectBoundingBox" id="x"><feOffset dy="3" in="SourceAlpha" result="shadowOffsetOuter1"/><feGaussianBlur stdDeviation="3" in="shadowOffsetOuter1" result="shadowBlurOuter1"/><feColorMatrix values="0 0 0 0 0.0115609217 0 0 0 0 0.467910214 0 0 0 0 1 0 0 0 1 0" in="shadowBlurOuter1"/></filter><radialGradient cx="52.436%" cy="42.955%" fx="52.436%" fy="42.955%" r="175.258%" gradientTransform="matrix(-.20606 0 0 -.21136 .632 .52)" id="a"><stop stop-color="#172743" offset="0%"/><stop stop-opacity="0" offset="100%"/></radialGradient><radialGradient cx="52.101%" cy="30.594%" fx="52.101%" fy="30.594%" r="430.416%" gradientTransform="matrix(-.1051 0 0 -.14606 .576 .35)" id="L"><stop offset="0%"/><stop stop-opacity=".002" offset="100%"/></radialGradient><radialGradient fx="50%" fy="50%" r="68.353%" id="p"><stop stop-color="#21C8F6" offset="0%"/><stop stop-color="#4BDEFF" offset="100%"/></radialGradient><radialGradient cx="52.436%" cy="42.955%" fx="52.436%" fy="42.955%" r="156.494%" gradientTransform="matrix(-.23077 0 0 -.21136 .645 .52)" id="l"><stop stop-color="#172743" offset="0%"/><stop stop-opacity="0" offset="100%"/></radialGradient><radialGradient cx="52.436%" cy="42.955%" fx="52.436%" fy="42.955%" r="91.927%" gradientTransform="matrix(-.39286 0 0 -.21136 .73 .52)" id="i"><stop stop-color="#172743" offset="0%"/><stop stop-opacity="0" offset="100%"/></radialGradient><path d="M43.153 63.192h54.048a1.447 1.447 0 110 2.894H43.153a1.447 1.447 0 110-2.894z" id="d"/><path d="M5.77 0h30.89a5.77 5.77 0 110 11.54H5.77A5.77 5.77 0 115.77 0z" id="y"/><path d="M7.147 0h37.847c3.947 0 7.147 3.2 7.147 7.147v30.354a7.147 7.147 0 01-4.55 6.66c-4.509 1.757-11.383 2.636-20.625 2.636-9.798 0-17.26-.988-22.389-2.964A7.147 7.147 0 010 37.163V7.148C0 3.2 3.2 0 7.147 0z" id="s"/><path d="M7.147 0h37.847c3.947 0 7.147 3.2 7.147 7.147v30.354a7.147 7.147 0 01-4.55 6.66c-4.509 1.757-11.383 2.636-20.625 2.636-9.798 0-17.26-.988-22.389-2.964A7.147 7.147 0 010 37.163V7.148C0 3.2 3.2 0 7.147 0z" id="t"/><pattern id="J" width="512" height="512" x="-493.195" y="-511.427" patternUnits="userSpaceOnUse"><use xlink:href="#a"/></pattern><circle id="I" cx="29.758" cy="11.526" r="10.953"/></defs><g fill="none" fill-rule="evenodd"><g transform="translate(0 45)"><ellipse fill="url(#a)" opacity=".899" transform="rotate(-1 69.567 98.532)" cx="69.567" cy="98.532" rx="68.567" ry="14.129"/><path d="M26.569 29.127l86.879-1.516a9.523 9.523 0 019.595 10.856l-6.13 43.31c-1.313 9.27-9.166 16.21-18.526 16.374l-54.305.948c-9.36.163-17.45-6.5-19.085-15.717l-7.639-43.07a9.523 9.523 0 019.21-11.185z" fill="#1B283E"/><path d="M24.099 23.823h92.834a9.523 9.523 0 019.378 11.175l-7.105 40.323a19.046 19.046 0 01-18.757 15.74H40.583a19.046 19.046 0 01-18.757-15.74l-7.105-40.323a9.523 9.523 0 019.378-11.175z" fill="url(#b)" transform="rotate(-1 70.515 57.442)"/><path d="M24.099 23.823h92.834a9.523 9.523 0 019.378 11.175l-7.105 40.323a19.046 19.046 0 01-18.757 15.74H40.583a19.046 19.046 0 01-18.757-15.74l-7.105-40.323a9.523 9.523 0 019.378-11.175z" fill="url(#b)" transform="rotate(-1 70.515 57.442)"/><path d="M43.04 58.366l54.04-.943a1.447 1.447 0 01.05 2.894l-27.45.479-26.59.464a1.447 1.447 0 11-.05-2.894z" fill="#1B283E"/><g transform="rotate(-1 70.177 64.64)"><use fill="#000" filter="url(#c)" xlink:href="#d"/><use fill="url(#e)" xlink:href="#d"/></g><path d="M43.982 68.949l54.04-.944a1.447 1.447 0 11.05 2.894l-27.45.48-26.589.464a1.447 1.447 0 11-.05-2.894zm.093 5.298l54.04-.944a1.447 1.447 0 11.05 2.894l-27.45.48-26.59.464a1.447 1.447 0 01-.05-2.894z" fill="#1B283E"/><path d="M39.614 24.572h62.333a9.523 9.523 0 019.078 12.397l-.926 2.926a19.046 19.046 0 01-18.157 13.297H49.618a19.046 19.046 0 01-18.157-13.297l-.926-2.926a9.523 9.523 0 019.079-12.397z" fill="url(#f)" transform="rotate(-1 70.78 38.882)"/><path d="M24.555 24.576h92.04a9.523 9.523 0 018.735 13.312l-1.666 3.842a19.046 19.046 0 01-17.472 11.466H34.958A19.046 19.046 0 0117.485 41.73l-1.666-3.842a9.523 9.523 0 018.736-13.312z" fill="url(#g)" transform="rotate(-1 70.574 38.886)"/><path d="M24.555 24.576h92.04a9.523 9.523 0 018.735 13.312l-1.666 3.842a19.046 19.046 0 01-17.472 11.466H34.958A19.046 19.046 0 0117.485 41.73l-1.666-3.842a9.523 9.523 0 018.736-13.312z" stroke="url(#h)" stroke-width=".779" transform="rotate(-1 70.574 38.886)"/><path d="M24.01 25.386l92.026-1.606-92.025 1.606zm101.175 4.747a9.523 9.523 0 01-.182 6.805l-1.599 3.87a19.046 19.046 0 01-17.27 11.77L34.912 53.82a19.046 19.046 0 01-17.67-11.159l-1.733-3.812a9.487 9.487 0 01-.42-6.785 8.222 8.222 0 00.83 5.504l.919 1.707a19.046 19.046 0 0017.105 10.02l73.004-1.274A19.046 19.046 0 00123.69 37.41l.857-1.738a8.256 8.256 0 00.637-5.539z" fill="#1B283E" opacity=".504"/><path d="M58.01 28.578l25.875-.451a9.523 9.523 0 016.304 2.24l4.298 3.623a3.45 3.45 0 01-2.164 6.087l-42.328.739a3.45 3.45 0 01-2.375-6.008l4.168-3.77a9.523 9.523 0 016.223-2.46z" fill="#1B283E"/><ellipse fill="url(#i)" opacity=".899" filter="url(#j)" transform="rotate(-1 84.743 34.256)" cx="84.743" cy="34.256" rx="21.817" ry="8.571"/><g transform="rotate(-1 214.54 -2787.82)"><path d="M14.254 2.607h16.08a7.407 7.407 0 017.407 7.406V28.09a4.232 4.232 0 01-4.232 4.232h-22.43a4.232 4.232 0 01-4.232-4.232V10.013a7.407 7.407 0 017.407-7.406z" fill="url(#k)"/><circle fill="#1B283E" cx="21.719" cy="18.1" r="10.908"/><ellipse fill="url(#l)" opacity=".65" filter="url(#m)" cx="20.782" cy="5.839" rx="20.258" ry="4.675"/></g><g transform="translate(49.68)"><circle fill="#92BAE9" opacity=".136" style="mix-blend-mode:overlay" filter="url(#n)" cx="21.038" cy="21.038" r="21.038"/><circle fill="#328AF1" opacity=".842" filter="url(#o)" cx="21.038" cy="21.038" r="11.688"/><circle fill="url(#p)" transform="scale(1 -1) rotate(4 637.498 0)" cx="21.287" cy="21.519" r="6.233"/><g style="mix-blend-mode:soft-light" fill="#FFF"><path d="M19.106 20.115l.99.99a.567.567 0 01-.801.801l-.99-.99a.567.567 0 11.801-.801zm2.194 2.193l2.162 2.162a.567.567 0 11-.801.802l-2.163-2.163a.567.567 0 11.802-.801z"/><path d="M18.547 19.97l6.104-1.715a.541.541 0 01.671.387.569.569 0 01-.397.688l-6.104 1.715a.541.541 0 01-.671-.387.569.569 0 01.397-.688z"/><path d="M22.534 24.759l1.716-6.105a.569.569 0 01.687-.397.541.541 0 01.388.671l-1.716 6.105a.569.569 0 01-.687.397.541.541 0 01-.388-.671zm-.122-2.807l-2.27 2.27a.55.55 0 11-.779-.78l2.27-2.269a.55.55 0 01.779.78zm-3.325 3.325l-.372.372a.55.55 0 11-.78-.779l.373-.372a.55.55 0 01.78.779z"/></g><path d="M25.415 17.966a5.194 5.194 0 10-6.472 7.993 5.194 5.194 0 016.472-7.993z" fill-opacity=".547" fill="#FFF" style="mix-blend-mode:lighten" opacity=".58"/></g></g><g transform="translate(29 1)"><path d="M23.647 0h33.658C65.763 0 72.62 6.857 72.62 15.315v35.432c0 10.15-8.228 18.378-18.378 18.378H26.71c-10.15 0-18.379-8.228-18.379-18.378V15.315C8.331 6.857 15.188 0 23.647 0z" fill="url(#q)"/><ellipse fill="url(#r)" cx="21.713" cy="5.914" rx="2.025" ry="2.057"/><path d="M71.428 13.166v38.12c0 10.151-8.228 18.38-18.378 18.38H27.972c-10.15 0-18.379-8.229-18.379-18.38V28.074 42.98c0 10.15 8.228 18.378 18.379 18.378H53.05c10.15 0 18.378-8.228 18.378-18.378V13.166z" fill="#1B283E" opacity=".499"/><g transform="translate(14.641 10.285)"><use fill="#1B283E" xlink:href="#s"/><mask id="w" fill="#fff"><use xlink:href="#t"/></mask><path stroke="url(#u)" stroke-width="1.091" d="M7.147.545A6.602 6.602 0 00.545 7.147v30.017c0 2.73 1.68 5.178 4.228 6.16 5.055 1.948 12.456 2.927 22.193 2.927 9.18 0 15.994-.87 20.426-2.599a6.602 6.602 0 004.204-6.15V7.146A6.602 6.602 0 0044.994.545H7.147z"/><ellipse fill="url(#v)" mask="url(#w)" cx="14.679" cy="8.742" rx="28.851" ry="29.312"/></g><g transform="translate(19.568 21)"><use fill="#000" filter="url(#x)" xlink:href="#y"/><use fill="url(#z)" xlink:href="#y"/></g><path d="M9.244 4.164h23.942a1.606 1.606 0 010 3.212H9.244a1.606 1.606 0 010-3.212z" fill="#00FFEC" filter="url(#A)" transform="translate(19.568 21)"/><path d="M47.36 7.302h-1.626a.815.815 0 01-.806-.822c0-.455.36-.823.806-.823h1.627c.445 0 .806.368.806.823a.815.815 0 01-.806.822zm3.038-2.262H48.77a.815.815 0 01-.806-.823c0-.455.36-.823.806-.823h1.627c.445 0 .806.368.806.823a.815.815 0 01-.806.823zm8.299 2.262H49.79a.817.817 0 01-.812-.822c0-.455.363-.823.812-.823h8.904c.449 0 .812.368.812.823a.817.817 0 01-.812.822h.004zm3.001-2.262h-8.84a.833.833 0 01-.844-.823c0-.455.378-.823.844-.823h8.84c.466 0 .844.368.844.823a.833.833 0 01-.844.823z" fill="#243552"/><path d="M23.647 0h33.728C65.834 0 72.69 6.857 72.69 15.315v35.03c0 10.15-8.228 18.377-18.378 18.377H26.71c-10.15 0-18.379-8.228-18.379-18.378V15.315C8.331 6.857 15.188 0 23.647 0z" stroke="url(#B)" stroke-width="1.558"/><g style="mix-blend-mode:luminosity"><g transform="translate(.568 14)"><ellipse fill="url(#C)" opacity=".398" cx="20.382" cy="15.558" rx="14.947" ry="14.882"/><ellipse fill="url(#C)" opacity=".398" cx="59.108" cy="15.558" rx="14.947" ry="14.882"/><path d="M58.786 29.63c-7.638 0-13.83-6.149-13.83-13.734 0-7.584 6.192-13.733 13.83-13.733s13.83 6.149 13.83 13.733c0 7.585-6.192 13.734-13.83 13.734zm-38.618 0c-7.638 0-13.83-6.149-13.83-13.734 0-7.584 6.192-13.733 13.83-13.733 7.639 0 13.83 6.149 13.83 13.733 0 7.585-6.191 13.734-13.83 13.734zM73.403 7.473c-1.155-1.324-3.349-3.038-4.662-4.019a15.971 15.971 0 00-1.044-.764l-.023-.016v.002A16.01 16.01 0 0058.787 0c-4.43 0-8.44 1.788-11.339 4.676-1.403 1.302-2.613 2.728-3.864 4.124-1.584 1.77-2.521.902-4.106.902-1.584 0-2.522.869-4.106-.902-1.25-1.396-2.46-2.822-3.864-4.124A16.13 16.13 0 0020.12 0c-3.29 0-6.541.986-8.937 2.676v-.002l.025.016c-.36.24-.683.497-1.021.764-1.314.98-3.564 2.695-4.72 4.019C3.751 9.439 0 9.57 0 9.57v4.064s2.245-.131 2.971.721c.429.503.892 2.924 1.647 5.458.23.903.558 1.773.936 2.606.354.829.767 1.597 1.24 2.227l.004-.004a16.024 16.024 0 0013.368 7.15 16.015 16.015 0 0014.584-9.341l.013-.016.037-.061c1.15-1.937 2.306-7.241 2.829-8.085.528-.852 1.848-.917 1.848-.917s1.32.065 1.849.917c.522.844 1.68 6.148 2.828 8.085l.038.061.011.016a16.014 16.014 0 0014.583 9.34 16.019 16.019 0 0013.366-7.15l.001.005c.472-.63.877-1.398 1.23-2.226.379-.834.69-1.704.92-2.607.755-2.534 1.18-4.955 1.608-5.458.726-.852 2.9-.72 2.9-.72V9.57s-3.692-.132-5.408-2.098z" stroke="#1B283E" stroke-width="1.058" fill="#1B283E"/></g><path fill="url(#D)" opacity=".309" d="M19.658 2.271L8.336 23.845l8.978 5.677L28.758 5.299zm38.647 0L46.983 23.845l8.979 5.677L67.405 5.299z" transform="translate(.568 14)"/></g></g><path d="M23.61 35.08v24.985c-.583 0-1.167.015-1.75.015-1.092 0-2.183-.015-3.25-.045V35.08h5z" fill="url(#E)" transform="scale(-1 1) rotate(-30 -9.402 359.073)"/><path d="M15.828 25.387l-5.553 5.553 6.67 6.67a3.919 3.919 0 005.553 0 3.919 3.919 0 000-5.553l-6.67-6.67z" fill="url(#F)" transform="scale(-1 1) rotate(-30 -9.402 359.073)"/><path d="M30.048 18.755l-7.714-7.714L.911 35.11a3.595 3.595 0 00.137 4.928 3.583 3.583 0 004.929.137l24.071-21.42z" fill="url(#G)" fill-rule="nonzero" transform="scale(-1 1) rotate(-30 -9.402 359.073)"/><g fill-rule="nonzero" transform="scale(-1 1) rotate(-30 -9.402 359.073)"><use fill="url(#H)" xlink:href="#I"/><use fill-opacity=".056" fill="url(#J)" xlink:href="#I"/></g><path d="M160 36.347a10.927 10.927 0 00-5.261-7.324c-5.24-3.025-11.938-1.23-14.963 4.01-2.646 4.583-1.603 10.284 2.208 13.664a10.912 10.912 0 011.252-7.638c3.025-5.239 9.724-7.034 14.962-4.009.656.378 1.257.814 1.802 1.297z" fill="#F94167" fill-rule="nonzero" style="mix-blend-mode:soft-light" opacity=".665"/><g transform="scale(-1 1) rotate(-30 23.54 341.716)"><path d="M18.129 9.735l-9.72 8.523a1.409 1.409 0 01-1.938-.07L.42 12.14a1.409 1.409 0 01-.068-1.938L8.877.484a1.426 1.426 0 012.076-.07l7.231 7.231a1.43 1.43 0 01-.055 2.09z" fill="url(#F)"/><ellipse fill="url(#K)" fill-rule="nonzero" cx="15.703" cy="16.575" rx="1.939" ry="2.036"/></g><g transform="translate(0 45)"><ellipse fill="url(#L)" opacity=".298" transform="rotate(1 70.62 86.427)" cx="70.62" cy="86.427" rx="52.452" ry="5.513"/><path d="M6 73.5h126a6 6 0 010 12H6a6 6 0 110-12z" fill="url(#M)"/><path d="M7.692 0h122.616c2.675 0 3.645.278 4.623.801a5.452 5.452 0 012.268 2.268c.523.978.801 1.948.801 4.623v67.616c0 2.675-.278 3.645-.801 4.623a5.452 5.452 0 01-2.268 2.268c-.978.523-1.948.801-4.623.801H7.692c-2.675 0-3.645-.278-4.623-.801A5.452 5.452 0 01.801 79.93C.278 78.953 0 77.983 0 75.308V7.692c0-2.675.278-3.645.801-4.623A5.452 5.452 0 013.07.801C4.047.278 5.017 0 7.692 0z" fill="url(#N)"/><g opacity=".399" stroke-width=".7"><path stroke="url(#O)" transform="rotate(90 42.508 30.222)" d="M54.729 57.714v-63.17h-9.442v-7.058h-7.466v-4.533h-6.535v-11.224"/><path stroke="url(#P)" transform="rotate(90 56.952 45.551)" d="M62.491 79.107V49.213h4.013V24.717l-2.982-.055v-7.401h-3.807v-4.533H48.401v-31.732"/><path stroke="url(#Q)" transform="rotate(90 58.113 38.002)" d="M65.111-23.805v59.691H51.518V26.89H36.513v14.813h9.618v10.018h11.385V31.532h23.198v20.902H67.478v-7.202H52.073v23.577"/><path stroke="url(#R)" transform="rotate(90 38.843 40.118)" d="M42.543 14.453h-6.399v20.33"/></g></g><g filter="url(#S)" transform="rotate(-45 132.24 -24.22)" fill="#FFF"><path d="M9.482 2.668v2.8a1.133 1.133 0 11-2.266 0v-2.8a1.133 1.133 0 012.266 0zm0 6.204v6.116a1.133 1.133 0 11-2.266 0V8.872a1.133 1.133 0 012.266 0z"/><path d="M8.895 1.672l11.06 6.207a1.083 1.083 0 01.4 1.497 1.135 1.135 0 01-1.533.411L7.762 3.58a1.083 1.083 0 01-.4-1.497c.314-.53.995-.713 1.533-.41z"/><path d="M7.762 14.084l11.06-6.207a1.137 1.137 0 011.534.41 1.083 1.083 0 01-.401 1.498l-11.06 6.207a1.137 1.137 0 01-1.534-.411 1.083 1.083 0 01.401-1.497zm3.797-4.142h-6.42a1.102 1.102 0 010-2.203h6.42a1.102 1.102 0 110 2.203zm-9.404 0H1.102a1.102 1.102 0 010-2.203h1.053a1.102 1.102 0 010 2.203z"/></g></g></svg>