<svg xmlns="http://www.w3.org/2000/svg" xmlns:xlink="http://www.w3.org/1999/xlink" width="509" height="514"><defs><linearGradient id="w" x1="68.376%" x2="31.624%" y1="12.29%" y2="100%"><stop offset="0%" stop-color="#FFDC25" stop-opacity=".2"/><stop offset="100%" stop-color="#FFB710" stop-opacity="0"/></linearGradient><linearGradient id="ai" x1="100%" x2="22.865%" y1="16.196%" y2="93.929%"><stop offset="0%" stop-color="#FFEDB6"/><stop offset="100%" stop-color="#FDD77F" stop-opacity="0"/></linearGradient><linearGradient id="ag" x1="0%" x2="66.512%" y1="43.798%" y2="58.328%"><stop offset="0%" stop-color="#FFEDB6"/><stop offset="100%" stop-color="#FDD77F" stop-opacity="0"/></linearGradient><linearGradient id="af" x1="24.51%" x2="68.552%" y1="0%" y2="77.497%"><stop offset="0%" stop-color="#FFEDB6"/><stop offset="100%" stop-color="#FDD77F" stop-opacity="0"/></linearGradient><linearGradient id="ae" x1="100%" x2="22.865%" y1="34.89%" y2="69.635%"><stop offset="0%" stop-color="#FFEDB6"/><stop offset="100%" stop-color="#FDD77F" stop-opacity="0"/></linearGradient><linearGradient id="k" x1="18.656%" x2="92.09%" y1="36.621%" y2="65.599%"><stop offset="0%" stop-color="#5F80AB"/><stop offset="100%" stop-color="#293F64"/></linearGradient><linearGradient id="l" x1="4.476%" x2="71.136%" y1="27.321%" y2="67.579%"><stop offset="0%" stop-color="#FFC300"/><stop offset="100%" stop-color="#293F64"/></linearGradient><linearGradient id="n" x1="0%" x2="47.735%" y1="34.297%" y2="64.88%"><stop offset="0%" stop-color="#FFDC25" stop-opacity=".2"/><stop offset="100%" stop-color="#FFB710" stop-opacity="0"/></linearGradient><linearGradient id="ab" x1="100%" x2="22.865%" y1="49.291%" y2="50.921%"><stop offset="0%" stop-color="#FFEDB6"/><stop offset="100%" stop-color="#FDD77F" stop-opacity="0"/></linearGradient><linearGradient id="p" x1="18.656%" x2="92.09%" y1="48.501%" y2="51.748%"><stop offset="0%" stop-color="#5F80AB"/><stop offset="100%" stop-color="#293F64"/></linearGradient><linearGradient id="q" x1="6.904%" x2="62.639%" y1="46.626%" y2="51.149%"><stop offset="0%" stop-color="#F9DB7B"/><stop offset="100%" stop-color="#161F2F"/></linearGradient><linearGradient id="aa" x1="100%" x2="0%" y1="49.466%" y2="50.709%"><stop offset="0%" stop-color="#FFDC25" stop-opacity=".2"/><stop offset="100%" stop-color="#FFB710" stop-opacity="0"/></linearGradient><linearGradient id="Z" x1="100%" x2="22.865%" y1="48.406%" y2="52.072%"><stop offset="0%" stop-color="#FFEDB6"/><stop offset="100%" stop-color="#FDD77F" stop-opacity="0"/></linearGradient><linearGradient id="u" x1="100%" x2="0%" y1="28.191%" y2="78.916%"><stop offset="0%" stop-color="#FFDC25" stop-opacity=".2"/><stop offset="100%" stop-color="#FFB710" stop-opacity="0"/></linearGradient><linearGradient id="v" x1="100%" x2="22.865%" y1="21.084%" y2="87.577%"><stop offset="0%" stop-color="#FFEDB6"/><stop offset="100%" stop-color="#FDD77F" stop-opacity="0"/></linearGradient><linearGradient id="ah" x1="100%" x2="22.865%" y1="45.486%" y2="55.866%"><stop offset="0%" stop-color="#FFEDB6"/><stop offset="100%" stop-color="#FDD77F" stop-opacity="0"/></linearGradient><linearGradient id="x" x1="68.376%" x2="40.027%" y1="0%" y2="114.976%"><stop offset="0%" stop-color="#FFEDB6"/><stop offset="100%" stop-color="#FDD77F" stop-opacity="0"/></linearGradient><linearGradient id="y" x1="100%" x2="0%" y1="33.288%" y2="72.159%"><stop offset="0%" stop-color="#FFDC25" stop-opacity=".2"/><stop offset="100%" stop-color="#FFB710" stop-opacity="0"/></linearGradient><linearGradient id="z" x1="100%" x2="22.865%" y1="27.841%" y2="78.796%"><stop offset="0%" stop-color="#FFEDB6"/><stop offset="100%" stop-color="#FDD77F" stop-opacity="0"/></linearGradient><linearGradient id="A" x1="100%" x2="0%" y1="37.116%" y2="67.083%"><stop offset="0%" stop-color="#FFDC25" stop-opacity=".2"/><stop offset="100%" stop-color="#FFB710" stop-opacity="0"/></linearGradient><linearGradient id="B" x1="100%" x2="18.252%" y1="32.917%" y2="58.414%"><stop offset="0%" stop-color="#FFEDB6"/><stop offset="100%" stop-color="#FDD77F" stop-opacity="0"/></linearGradient><linearGradient id="C" x1="100%" x2="0%" y1="28.091%" y2="79.049%"><stop offset="0%" stop-color="#FFDC25" stop-opacity=".2"/><stop offset="100%" stop-color="#FFB710" stop-opacity="0"/></linearGradient><linearGradient id="D" x1="100%" x2="22.865%" y1="20.951%" y2="87.75%"><stop offset="0%" stop-color="#FFEDB6"/><stop offset="100%" stop-color="#FDD77F" stop-opacity="0"/></linearGradient><linearGradient id="Y" x1="100%" x2="0%" y1="48.798%" y2="51.594%"><stop offset="0%" stop-color="#FFDC25" stop-opacity=".2"/><stop offset="100%" stop-color="#FFB710" stop-opacity="0"/></linearGradient><linearGradient id="X" x1="92.999%" x2="18.479%" y1="64.203%" y2="43.746%"><stop offset="0%" stop-color="#FFEDB6"/><stop offset="100%" stop-color="#FDD77F" stop-opacity="0"/></linearGradient><linearGradient id="U" x1="92.999%" x2="18.479%" y1="55.787%" y2="47.452%"><stop offset="0%" stop-color="#FFEDB6"/><stop offset="100%" stop-color="#FDD77F" stop-opacity="0"/></linearGradient><linearGradient id="O" x1="100%" x2="0%" y1="49.929%" y2="50.095%"><stop offset="0%" stop-color="#FFDC25" stop-opacity=".2"/><stop offset="100%" stop-color="#FFB710" stop-opacity="0"/></linearGradient><linearGradient id="P" x1="100%" x2="22.865%" y1="49.905%" y2="50.123%"><stop offset="0%" stop-color="#FFEDB6"/><stop offset="100%" stop-color="#FDD77F" stop-opacity="0"/></linearGradient><linearGradient id="Q" x1="100%" x2="0%" y1="49.796%" y2="50.27%"><stop offset="0%" stop-color="#FFDC25" stop-opacity=".2"/><stop offset="100%" stop-color="#FFB710" stop-opacity="0"/></linearGradient><linearGradient id="R" x1="100%" x2="22.865%" y1="49.73%" y2="50.351%"><stop offset="0%" stop-color="#FFEDB6"/><stop offset="100%" stop-color="#FDD77F" stop-opacity="0"/></linearGradient><filter id="c" width="100%" height="100%" x="0%" y="0%" filterUnits="objectBoundingBox"><feGaussianBlur in="SourceGraphic"/></filter><filter id="E" width="151.1%" height="151.1%" x="-25.6%" y="-25.6%" filterUnits="objectBoundingBox"><feMorphology in="SourceAlpha" operator="dilate" radius=".5" result="shadowSpreadOuter1"/><feOffset in="shadowSpreadOuter1" result="shadowOffsetOuter1"/><feGaussianBlur in="shadowOffsetOuter1" result="shadowBlurOuter1" stdDeviation="7.5"/><feComposite in="shadowBlurOuter1" in2="SourceAlpha" operator="out" result="shadowBlurOuter1"/><feColorMatrix in="shadowBlurOuter1" values="0 0 0 0 1 0 0 0 0 0.717647059 0 0 0 0 0.062745098 0 0 0 1 0"/></filter><filter id="V" width="253.3%" height="1020%" x="-76.7%" y="-460%" filterUnits="objectBoundingBox"><feMorphology in="SourceAlpha" operator="dilate" radius=".5" result="shadowSpreadOuter1"/><feOffset in="shadowSpreadOuter1" result="shadowOffsetOuter1"/><feMorphology in="SourceAlpha" radius="1" result="shadowInner"/><feOffset in="shadowInner" result="shadowInner"/><feComposite in="shadowOffsetOuter1" in2="shadowInner" operator="out" result="shadowOffsetOuter1"/><feGaussianBlur in="shadowOffsetOuter1" result="shadowBlurOuter1" stdDeviation="7.5"/><feColorMatrix in="shadowBlurOuter1" values="0 0 0 0 1 0 0 0 0 0.717647059 0 0 0 0 0.062745098 0 0 0 1 0"/></filter><filter id="G" width="171.9%" height="171.9%" x="-35.9%" y="-35.9%" filterUnits="objectBoundingBox"><feMorphology in="SourceAlpha" operator="dilate" radius=".5" result="shadowSpreadOuter1"/><feOffset in="shadowSpreadOuter1" result="shadowOffsetOuter1"/><feGaussianBlur in="shadowOffsetOuter1" result="shadowBlurOuter1" stdDeviation="7.5"/><feComposite in="shadowBlurOuter1" in2="SourceAlpha" operator="out" result="shadowBlurOuter1"/><feColorMatrix in="shadowBlurOuter1" values="0 0 0 0 1 0 0 0 0 0.717647059 0 0 0 0 0.062745098 0 0 0 1 0"/></filter><filter id="g" width="110.1%" height="242.5%" x="-5%" y="-71.2%" filterUnits="objectBoundingBox"><feGaussianBlur in="SourceGraphic" stdDeviation="7.125"/></filter><filter id="I" width="227.8%" height="227.8%" x="-63.9%" y="-63.9%" filterUnits="objectBoundingBox"><feMorphology in="SourceAlpha" operator="dilate" radius=".5" result="shadowSpreadOuter1"/><feOffset in="shadowSpreadOuter1" result="shadowOffsetOuter1"/><feGaussianBlur in="shadowOffsetOuter1" result="shadowBlurOuter1" stdDeviation="7.5"/><feComposite in="shadowBlurOuter1" in2="SourceAlpha" operator="out" result="shadowBlurOuter1"/><feColorMatrix in="shadowBlurOuter1" values="0 0 0 0 1 0 0 0 0 0.717647059 0 0 0 0 0.062745098 0 0 0 1 0"/></filter><filter id="S" width="197.9%" height="1020%" x="-48.9%" y="-460%" filterUnits="objectBoundingBox"><feMorphology in="SourceAlpha" operator="dilate" radius=".5" result="shadowSpreadOuter1"/><feOffset in="shadowSpreadOuter1" result="shadowOffsetOuter1"/><feMorphology in="SourceAlpha" radius="1" result="shadowInner"/><feOffset in="shadowInner" result="shadowInner"/><feComposite in="shadowOffsetOuter1" in2="shadowInner" operator="out" result="shadowOffsetOuter1"/><feGaussianBlur in="shadowOffsetOuter1" result="shadowBlurOuter1" stdDeviation="7.5"/><feColorMatrix in="shadowBlurOuter1" values="0 0 0 0 1 0 0 0 0 0.717647059 0 0 0 0 0.062745098 0 0 0 1 0"/></filter><filter id="K" width="133.8%" height="200.5%" x="-16.9%" y="-50.3%" filterUnits="objectBoundingBox"><feMorphology in="SourceAlpha" operator="dilate" radius=".5" result="shadowSpreadOuter1"/><feOffset in="shadowSpreadOuter1" result="shadowOffsetOuter1"/><feGaussianBlur in="shadowOffsetOuter1" result="shadowBlurOuter1" stdDeviation="7.5"/><feComposite in="shadowBlurOuter1" in2="SourceAlpha" operator="out" result="shadowBlurOuter1"/><feColorMatrix in="shadowBlurOuter1" values="0 0 0 0 1 0 0 0 0 0.717647059 0 0 0 0 0.062745098 0 0 0 1 0"/></filter><filter id="ac" width="4600%" height="129.5%" x="-2250%" y="-14.8%" filterUnits="objectBoundingBox"><feMorphology in="SourceAlpha" operator="dilate" radius=".5" result="shadowSpreadOuter1"/><feOffset in="shadowSpreadOuter1" result="shadowOffsetOuter1"/><feMorphology in="SourceAlpha" radius="1" result="shadowInner"/><feOffset in="shadowInner" result="shadowInner"/><feComposite in="shadowOffsetOuter1" in2="shadowInner" operator="out" result="shadowOffsetOuter1"/><feGaussianBlur in="shadowOffsetOuter1" result="shadowBlurOuter1" stdDeviation="7.5"/><feColorMatrix in="shadowBlurOuter1" values="0 0 0 0 1 0 0 0 0 0.717647059 0 0 0 0 0.062745098 0 0 0 1 0"/></filter><filter id="M" width="146%" height="232.7%" x="-23%" y="-66.4%" filterUnits="objectBoundingBox"><feMorphology in="SourceAlpha" operator="dilate" radius=".5" result="shadowSpreadOuter1"/><feOffset in="shadowSpreadOuter1" result="shadowOffsetOuter1"/><feMorphology in="SourceAlpha" radius="1" result="shadowInner"/><feOffset in="shadowInner" result="shadowInner"/><feComposite in="shadowOffsetOuter1" in2="shadowInner" operator="out" result="shadowOffsetOuter1"/><feGaussianBlur in="shadowOffsetOuter1" result="shadowBlurOuter1" stdDeviation="7.5"/><feColorMatrix in="shadowBlurOuter1" values="0 0 0 0 1 0 0 0 0 0.717647059 0 0 0 0 0.062745098 0 0 0 1 0"/></filter><filter id="s" width="106.6%" height="861.9%" x="-3.3%" y="-381%" filterUnits="objectBoundingBox"><feOffset in="SourceAlpha" result="shadowOffsetOuter1"/><feGaussianBlur in="shadowOffsetOuter1" result="shadowBlurOuter1" stdDeviation="4"/><feColorMatrix in="shadowBlurOuter1" values="0 0 0 0 1 0 0 0 0 0.717647059 0 0 0 0 0.062745098 0 0 0 1 0"/></filter><filter id="a" width="155.6%" height="161.8%" x="-27.8%" y="-30.9%" filterUnits="objectBoundingBox"><feGaussianBlur in="SourceGraphic" stdDeviation="35"/></filter><filter id="e" width="100%" height="100%" x="0%" y="0%" filterUnits="objectBoundingBox"><feGaussianBlur in="SourceGraphic"/></filter><filter id="j" width="116.3%" height="258.3%" x="-8.2%" y="-79.2%" filterUnits="objectBoundingBox"><feGaussianBlur in="SourceGraphic" stdDeviation="7.125"/></filter><radialGradient id="r" cx="29.172%" cy="66.822%" r="1955.595%" fx="29.172%" fy="66.822%" gradientTransform="matrix(.02777 -.02794 .00078 .99961 .283 .008)"><stop offset="0%" stop-color="#2F4568"/><stop offset="100%"/></radialGradient><radialGradient id="d" cx="0%" r="364.435%" fx="0%" fy="50%" gradientTransform="matrix(.28848 .69274 -.2771 .7212 .139 .14)"><stop offset="0%" stop-color="#2F4568"/><stop offset="100%"/></radialGradient><radialGradient id="f" cx="52.101%" cy="30.594%" r="689.65%" fx="52.101%" fy="30.594%" gradientTransform="matrix(-.07075 0 0 -.25522 .558 .384)"><stop offset="0%"/><stop offset="100%" stop-opacity=".002"/></radialGradient><radialGradient id="b" cx="52.436%" cy="42.955%" r="36.114%" fx="52.436%" fy="42.955%" gradientTransform="matrix(-1 0 0 -.21136 1.049 .52)"><stop offset="0%" stop-color="#172743"/><stop offset="100%" stop-opacity="0"/></radialGradient><radialGradient id="h" cx="0%" r="534.846%" fx="0%" fy="50%" gradientTransform="scale(.17284 1)"><stop offset="0%" stop-color="#2F4568"/><stop offset="100%"/></radialGradient><radialGradient id="i" cx="52.101%" cy="30.594%" r="473.502%" fx="52.101%" fy="30.594%" gradientTransform="matrix(-.10305 0 0 -.25522 .575 .384)"><stop offset="0%"/><stop offset="100%" stop-opacity=".002"/></radialGradient><radialGradient id="o" cx="29.172%" cy="66.822%" r="363.393%" fx="29.172%" fy="66.822%" gradientTransform="matrix(.14943 -.15035 .02272 .98863 .233 .051)"><stop offset="0%" stop-color="#2F4568"/><stop offset="100%"/></radialGradient><radialGradient id="m" cy="0%" r="100.033%" fx="50%" fy="0%" gradientTransform="matrix(.0149 .99967 -.57707 .02582 .493 -.5)"><stop offset="0%" stop-color="#68552F"/><stop offset="100%"/></radialGradient><circle id="H" cx="45" cy="45" r="32"/><circle id="J" cx="45" cy="45" r="18"/><circle id="F" cx="45" cy="45" r="45"/><rect id="T" width="47" height="5" y="20" rx="2.5"/><rect id="t" width="363" height="3.15" x="41.883" y="324.613" rx="1.575"/><rect id="W" width="30" height="5" x="52" y="20" rx="2.5"/><path id="ad" d="M226.5 55v155.767"/><path id="L" d="M18.033 8.662h116c5.523 0 10 4.477 10 10v17c0 5.523-4.477 10-10 10h-30.166a2 2 0 00-1.476.652l-3.41 3.733a13.43 13.43 0 01-9.942 4.373l-24.084-.047a11.848 11.848 0 01-9.16-4.36l-2.946-3.615a2 2 0 00-1.55-.736H18.033c-5.523 0-10-4.477-10-10v-17c0-5.523 4.477-10 10-10z"/><path id="N" d="M0 34.662V9a9 9 0 019-9h91.033"/></defs><g fill="none" fill-rule="evenodd" transform="translate(16 49)"><ellipse cx="218.729" cy="208" fill="#FFE9AB" filter="url(#a)" opacity=".625" rx="189" ry="170" style="mix-blend-mode:overlay"/><path stroke="#23334C" stroke-width="5" d="M392.599 232.532c26.54 0 3.805 60.236 31.6 60.236 25.223 0 40.32 59.888 7.29 56.031"/><g transform="matrix(0 -1 -1 0 436.199 361)"><circle cx="12.264" cy="12.864" r="11.664" fill="url(#b)" filter="url(#c)" opacity=".899" transform="rotate(1 12.264 12.864)"/><g transform="rotate(-180 9.9 6)"><rect width="8.331" height="8.748" x="3.124" y="2.916" fill="#152032" rx="4.166"/><rect width="14.58" height="5.832" fill="url(#d)" rx="2.916"/></g></g><g transform="rotate(32 -180.11 765.528)"><circle cx="16.658" cy="16.335" r="11.664" fill="url(#b)" filter="url(#e)" opacity=".899" transform="rotate(-122 16.658 16.335)"/><g transform="scale(1 -1) rotate(-58 -3.58 -14.19)"><rect width="8.331" height="8.748" x="3.124" y="2.916" fill="#1B283E" rx="4.166"/><rect width="14.58" height="5.832" fill="url(#d)" rx="2.916"/></g></g><ellipse cx="213" cy="384" fill="url(#f)" filter="url(#g)" opacity=".783" rx="212" ry="15" transform="rotate(1 213 384)"/><path fill="url(#h)" d="M117.319 272H327.68a8 8 0 017.783 6.147l6.19 26a8 8 0 01-7.782 9.853H111.128a8 8 0 01-7.782-9.853l6.19-26A8 8 0 01117.32 272z"/><ellipse cx="213" cy="279.5" fill="url(#i)" filter="url(#j)" opacity=".783" rx="131" ry="13.5"/><g transform="translate(60 93)"><path fill="url(#k)" d="M20.09 4.86C45.489 1.62 93.872 0 165.24 0c68.673 0 115.287 1.5 139.84 4.5 11.539 1.41 20.211 11.206 20.211 22.83v138.31c0 12.319-9.706 22.45-22.014 22.979-66.177 2.84-113.37 4.26-141.578 4.26-28.16 0-74.727-1.415-139.7-4.246C9.697 188.097 0 177.968 0 165.655V27.675C0 16.097 8.605 6.325 20.09 4.86z"/><path fill="url(#l)" d="M20.09 4.86C45.489 1.62 93.872 0 165.24 0c68.673 0 115.287 1.5 139.84 4.5 11.539 1.41 20.211 11.206 20.211 22.83v138.31c0 12.319-9.706 22.45-22.014 22.979-66.177 2.84-113.37 4.26-141.578 4.26-28.16 0-74.727-1.415-139.7-4.246C9.697 188.097 0 177.968 0 165.655V27.675C0 16.097 8.605 6.325 20.09 4.86z" opacity=".705" style="mix-blend-mode:overlay"/><rect width="312.312" height="166.296" x="6.49" y="15.678" fill="#1B283E" rx="20"/><path fill="url(#m)" d="M24.223 13.42c37.815-4.313 83.112-6.47 135.89-6.47 53.301 0 100.249 2.2 140.843 6.6 10.153 1.1 17.846 9.671 17.846 19.883v129.813c0 10.573-8.23 19.32-18.784 19.963-44.056 2.685-90.012 4.028-137.868 4.028-47.775 0-93.405-1.339-136.889-4.015-10.549-.649-18.771-9.393-18.771-19.962V33.291c0-10.168 7.63-18.718 17.733-19.87z"/><path fill="url(#n)" d="M24.223 13.42c37.815-4.313 83.112-6.47 135.89-6.47 59.876 0 111.735 2.776 155.576 8.328a1 1 0 01.344 1.875L15.31 177.278a6 6 0 01-8.82-5.296V33.292c0-10.17 7.63-18.72 17.733-19.872z"/></g><path fill="url(#o)" d="M58.532 301.7h332.61a32 32 0 0124.446 11.351l4.551 5.389-12.32 37.082a8 8 0 01-7.591 5.478H48.518a8 8 0 01-7.478-5.159L27.802 321l5.589-7.098a32 32 0 0125.14-12.202z"/><path fill="url(#p)" d="M49 308h351c13.807 0 25 11.193 25 25v26.23c0 13.09-10.097 23.963-23.15 24.931-30.898 2.292-90.014 3.438-177.35 3.438s-146.452-1.146-177.35-3.438C34.098 383.193 24 372.319 24 359.229V333c0-13.807 11.193-25 25-25z"/><path fill="url(#q)" d="M49 308h351c13.807 0 25 11.193 25 25v26.23c0 13.09-10.097 23.963-23.15 24.931-30.898 2.292-90.014 3.438-177.35 3.438s-146.452-1.146-177.35-3.438C34.098 383.193 24 372.319 24 359.229V333c0-13.807 11.193-25 25-25z" opacity=".367" style="mix-blend-mode:overlay"/><path fill="url(#r)" d="M38.48 321h367.5a5.25 5.25 0 110 10.5H38.48a5.25 5.25 0 110-10.5z"/><use fill="#000" filter="url(#s)" xlink:href="#t"/><use fill="#FFB710" xlink:href="#t"/><path fill="url(#u)" stroke="url(#v)" d="M49.249 63.817l141.893 8.755c6.641.41 11.793 5.958 11.71 12.611l-1.145 92.145c-.086 6.892-5.742 12.41-12.634 12.324l-.192-.004-140.748-3.911C41.378 185.549 36 180.019 36 173.262V76.274c0-6.893 5.587-12.48 12.48-12.48.256 0 .513.008.769.023z" transform="matrix(-1 0 0 1 239 0)"/><path fill="url(#w)" stroke="url(#x)" d="M56.399 77.14l38.54 2.845a12.48 12.48 0 0111.56 12.514l-.415 76.09c-.037 6.865-5.614 12.411-12.48 12.411H55.48C48.587 181 43 175.413 43 168.52V89.585c0-6.892 5.587-12.48 12.48-12.48.307 0 .613.012.919.034z" transform="matrix(-1 0 0 1 149.564 0)"/><path fill="url(#y)" stroke="url(#z)" d="M124.597 71.072l59.775 4.714a12.48 12.48 0 0111.499 12.442v25.492c0 6.893-5.588 12.48-12.48 12.48-.099 0-.197 0-.296-.003l-59.485-1.41c-6.727-.16-12.116-5.624-12.184-12.352l-.29-28.796c-.068-6.892 5.463-12.535 12.355-12.605.37-.003.738.01 1.106.038z" transform="matrix(-1 0 0 1 306.87 0)"/><path fill="url(#A)" stroke="url(#B)" d="M125.28 131.322l58.475 1.705c6.748.196 12.116 5.724 12.116 12.474v21.385c0 6.892-5.588 12.48-12.48 12.48-.115 0-.23-.002-.345-.005l-58.474-1.617c-6.756-.187-12.135-5.717-12.135-12.475v-21.473c0-6.892 5.587-12.48 12.48-12.48.12 0 .242.002.363.006z" transform="matrix(-1 0 0 1 308.307 0)"/><path fill="url(#C)" stroke="url(#D)" d="M13.25.82l142.107 8.787c6.64.41 11.792 5.958 11.71 12.61l-1.149 92.564c-.085 6.892-5.742 12.41-12.634 12.324-.064 0-.128-.002-.192-.004l-140.96-3.926C5.379 122.987 0 117.457 0 110.7V13.276C0 6.383 5.587.796 12.48.796c.257 0 .514.008.77.023z" transform="translate(250 63)"/><g transform="translate(289 81)"><use fill="#000" filter="url(#E)" xlink:href="#F"/><use fill="#FFB710" fill-opacity=".2" stroke="#FDD77F" xlink:href="#F"/></g><g transform="translate(289 81)"><use fill="#000" filter="url(#G)" xlink:href="#H"/><use fill="#FFB710" fill-opacity=".2" stroke="#FDD77F" xlink:href="#H"/></g><g transform="translate(289 81)"><use fill="#000" filter="url(#I)" xlink:href="#J"/><use fill="#FFB710" fill-opacity=".2" stroke="#FDD77F" xlink:href="#J"/></g><path stroke="#FDD77F" d="M119 188v18.767a4 4 0 004 4h207a4 4 0 004-4V188"/><g transform="translate(150)"><use fill="#000" filter="url(#K)" xlink:href="#L"/><use fill="#FFB710" fill-opacity=".2" stroke="#FDD77F" xlink:href="#L"/></g><g transform="translate(150)"><use fill="#000" filter="url(#M)" xlink:href="#N"/><use stroke="#FDD77F" xlink:href="#N"/></g><g transform="translate(168 15)"><rect width="115" height="5" fill="url(#O)" stroke="url(#P)" rx="2.5"/><rect width="68" height="5" y="10" fill="url(#Q)" stroke="url(#R)" rx="2.5"/><use fill="#000" filter="url(#S)" xlink:href="#T"/><use stroke="url(#U)" xlink:href="#T"/><use fill="#000" filter="url(#V)" xlink:href="#W"/><use stroke="url(#X)" xlink:href="#W"/><rect width="28" height="5" x="87" y="20" fill="url(#Y)" stroke="url(#Z)" rx="2.5"/><rect width="42" height="5" x="73" y="10" fill="url(#aa)" stroke="url(#ab)" rx="2.5"/></g><use fill="#000" filter="url(#ac)" xlink:href="#ad"/><use stroke="#FDD77F" xlink:href="#ad"/><g><path stroke="url(#ae)" d="M90.5 0v27.968H41.691V13.602H0V49.75" transform="translate(101 210.881)"/><path stroke="url(#af)" d="M67 0v41.105h40.396v15.473" transform="translate(101 210.881)"/><path stroke="url(#ag)" d="M0 0v25.917h22.366V16h55.878v16.477h22.25" transform="translate(226.412 210.881)"/><path stroke="url(#ah)" d="M22 0v8h11v14.035h41V16h21.335" transform="translate(226.412 210.881)"/><path stroke="url(#ai)" d="M43 0v6.283h27.749v39.895h-56.16" transform="translate(226.412 210.881)"/></g></g></svg>