<svg xmlns="http://www.w3.org/2000/svg" xmlns:xlink="http://www.w3.org/1999/xlink" width="463" height="454"><defs><filter id="z" width="115.9%" height="115.9%" x="-8%" y="-8%" filterUnits="objectBoundingBox"><feMorphology in="SourceAlpha" operator="dilate" radius="3" result="shadowSpreadOuter1"/><feOffset in="shadowSpreadOuter1" result="shadowOffsetOuter1"/><feMorphology in="SourceAlpha" radius="3" result="shadowInner"/><feOffset in="shadowInner" result="shadowInner"/><feComposite in="shadowOffsetOuter1" in2="shadowInner" operator="out" result="shadowOffsetOuter1"/><feGaussianBlur in="shadowOffsetOuter1" result="shadowBlurOuter1" stdDeviation="2.5"/><feColorMatrix in="shadowBlurOuter1" values="0 0 0 0 0.730146759 0 0 0 0 0.285446628 0 0 0 0 0.812245245 0 0 0 1 0"/></filter><filter id="a" width="171.9%" height="180.2%" x="-36%" y="-40.1%" filterUnits="objectBoundingBox"><feGaussianBlur in="SourceGraphic" stdDeviation="35"/></filter><filter id="W" width="176.1%" height="353.4%" x="-38.1%" y="-126.7%" filterUnits="objectBoundingBox"><feMorphology in="SourceAlpha" operator="dilate" radius=".921" result="shadowSpreadOuter1"/><feOffset in="shadowSpreadOuter1" result="shadowOffsetOuter1"/><feMorphology in="SourceAlpha" radius="1" result="shadowInner"/><feOffset in="shadowInner" result="shadowInner"/><feComposite in="shadowOffsetOuter1" in2="shadowInner" operator="out" result="shadowOffsetOuter1"/><feGaussianBlur in="shadowOffsetOuter1" result="shadowBlurOuter1" stdDeviation="9"/><feColorMatrix in="shadowBlurOuter1" values="0 0 0 0 0.152877287 0 0 0 0 0.760326257 0 0 0 0 1 0 0 0 1 0"/></filter><filter id="d" width="114.6%" height="201.8%" x="-7.3%" y="-50.9%" filterUnits="objectBoundingBox"><feGaussianBlur in="SourceGraphic" stdDeviation="7.125"/></filter><filter id="e" width="180.5%" height="218.6%" x="-40.2%" y="-59.3%" filterUnits="objectBoundingBox"><feGaussianBlur in="SourceGraphic" stdDeviation="35"/></filter><filter id="T" width="155.6%" height="271.9%" x="-27.8%" y="-86%" filterUnits="objectBoundingBox"><feMorphology in="SourceAlpha" operator="dilate" radius=".921" result="shadowSpreadOuter1"/><feOffset in="shadowSpreadOuter1" result="shadowOffsetOuter1"/><feMorphology in="SourceAlpha" radius="1" result="shadowInner"/><feOffset in="shadowInner" result="shadowInner"/><feComposite in="shadowOffsetOuter1" in2="shadowInner" operator="out" result="shadowOffsetOuter1"/><feGaussianBlur in="shadowOffsetOuter1" result="shadowBlurOuter1" stdDeviation="9"/><feColorMatrix in="shadowBlurOuter1" values="0 0 0 0 0.152877287 0 0 0 0 0.760326257 0 0 0 0 1 0 0 0 1 0"/></filter><filter id="Q" width="176.1%" height="449%" x="-38%" y="-174.5%" filterUnits="objectBoundingBox"><feMorphology in="SourceAlpha" operator="dilate" radius=".921" result="shadowSpreadOuter1"/><feOffset in="shadowSpreadOuter1" result="shadowOffsetOuter1"/><feMorphology in="SourceAlpha" radius="1" result="shadowInner"/><feOffset in="shadowInner" result="shadowInner"/><feComposite in="shadowOffsetOuter1" in2="shadowInner" operator="out" result="shadowOffsetOuter1"/><feGaussianBlur in="shadowOffsetOuter1" result="shadowBlurOuter1" stdDeviation="9"/><feColorMatrix in="shadowBlurOuter1" values="0 0 0 0 0.152877287 0 0 0 0 0.760326257 0 0 0 0 1 0 0 0 1 0"/></filter><filter id="P" width="100%" height="100%" x="0%" y="0%" filterUnits="objectBoundingBox"><feGaussianBlur in="SourceGraphic"/></filter><filter id="h" width="127.5%" height="861.9%" x="-13.8%" y="-381%" filterUnits="objectBoundingBox"><feOffset in="SourceAlpha" result="shadowOffsetOuter1"/><feGaussianBlur in="shadowOffsetOuter1" result="shadowBlurOuter1" stdDeviation="4"/><feColorMatrix in="shadowBlurOuter1" values="0 0 0 0 0.971495697 0 0 0 0 0 0 0 0 0 0.943259481 0 0 0 1 0"/></filter><filter id="O" width="100%" height="100%" x="0%" y="0%" filterUnits="objectBoundingBox"><feGaussianBlur in="SourceGraphic"/></filter><filter id="j" width="127.5%" height="861.9%" x="-13.8%" y="-381%" filterUnits="objectBoundingBox"><feOffset in="SourceAlpha" result="shadowOffsetOuter1"/><feGaussianBlur in="shadowOffsetOuter1" result="shadowBlurOuter1" stdDeviation="4"/><feColorMatrix in="shadowBlurOuter1" values="0 0 0 0 0.971495697 0 0 0 0 0 0 0 0 0 0.943259481 0 0 0 1 0"/></filter><filter id="M" width="100%" height="100%" x="0%" y="0%" filterUnits="objectBoundingBox"><feGaussianBlur in="SourceGraphic"/></filter><filter id="l" width="146.2%" height="861.9%" x="-23.1%" y="-381%" filterUnits="objectBoundingBox"><feOffset in="SourceAlpha" result="shadowOffsetOuter1"/><feGaussianBlur in="shadowOffsetOuter1" result="shadowBlurOuter1" stdDeviation="4"/><feColorMatrix in="shadowBlurOuter1" values="0 0 0 0 0.971495697 0 0 0 0 0 0 0 0 0 0.943259481 0 0 0 1 0"/></filter><filter id="K" width="100%" height="100%" x="0%" y="0%" filterUnits="objectBoundingBox"><feGaussianBlur in="SourceGraphic"/></filter><filter id="o" width="114.6%" height="133.4%" x="-7.3%" y="-16.7%" filterUnits="objectBoundingBox"><feGaussianBlur in="SourceGraphic" stdDeviation="7.125"/></filter><filter id="H" width="100%" height="100%" x="0%" y="0%" filterUnits="objectBoundingBox"><feGaussianBlur in="SourceGraphic"/></filter><filter id="p" width="153.6%" height="381.2%" x="-26.8%" y="-140.6%" filterUnits="objectBoundingBox"><feOffset in="SourceAlpha" result="shadowOffsetOuter1"/><feGaussianBlur in="shadowOffsetOuter1" result="shadowBlurOuter1" stdDeviation="7.5"/><feColorMatrix in="shadowBlurOuter1" values="0 0 0 0 1 0 0 0 0 0.501429116 0 0 0 0 0.985509194 0 0 0 1 0"/></filter><filter id="D" width="180%" height="180%" x="-40%" y="-40%" filterUnits="objectBoundingBox"><feGaussianBlur in="SourceGraphic" stdDeviation="12"/></filter><filter id="C" width="144.4%" height="144.4%" x="-22.2%" y="-22.2%" filterUnits="objectBoundingBox"><feGaussianBlur in="SourceGraphic" stdDeviation="12"/></filter><filter id="w" width="156.8%" height="156.8%" x="-28.4%" y="-28.4%" filterUnits="objectBoundingBox"><feOffset in="SourceAlpha" result="shadowOffsetOuter1"/><feGaussianBlur in="shadowOffsetOuter1" result="shadowBlurOuter1" stdDeviation="12.5"/><feColorMatrix in="shadowBlurOuter1" values="0 0 0 0 0.803048242 0 0 0 0 0.208830007 0 0 0 0 0.969429348 0 0 0 1 0"/></filter><filter id="Z" width="197.1%" height="559.1%" x="-48.6%" y="-229.5%" filterUnits="objectBoundingBox"><feMorphology in="SourceAlpha" operator="dilate" radius=".921" result="shadowSpreadOuter1"/><feOffset in="shadowSpreadOuter1" result="shadowOffsetOuter1"/><feMorphology in="SourceAlpha" radius="1" result="shadowInner"/><feOffset in="shadowInner" result="shadowInner"/><feComposite in="shadowOffsetOuter1" in2="shadowInner" operator="out" result="shadowOffsetOuter1"/><feGaussianBlur in="shadowOffsetOuter1" result="shadowBlurOuter1" stdDeviation="9"/><feColorMatrix in="shadowBlurOuter1" values="0 0 0 0 0.152877287 0 0 0 0 0.760326257 0 0 0 0 1 0 0 0 1 0"/></filter><radialGradient id="u" cx="29.172%" cy="66.822%" r="77.03%" fx="29.172%" fy="66.822%"><stop offset="0%" stop-color="#2F4568"/><stop offset="100%"/></radialGradient><radialGradient id="y" r="74.367%" fx="50%" fy="50%"><stop offset="0%" stop-color="#B372BD"/><stop offset="100%" stop-color="#8B60ED"/></radialGradient><radialGradient id="c" cx="52.101%" cy="30.594%" r="339.249%" fx="52.101%" fy="30.594%" gradientTransform="matrix(-.14384 0 0 -.25522 .596 .384)"><stop offset="0%"/><stop offset="100%" stop-opacity=".002"/></radialGradient><radialGradient id="g" cx="48.254%" cy="-139.451%" r="232.638%" fx="48.254%" fy="-139.451%" gradientTransform="matrix(0 1 -.35638 0 -.014 -1.877)"><stop offset="0%" stop-color="#EC72FF" stop-opacity=".401"/><stop offset="100%" stop-color="#293F64"/></radialGradient><radialGradient id="N" cy="210.455%" r="232.638%" fx="50%" fy="210.455%" gradientTransform="matrix(0 1 -1.52956 0 3.719 1.605)"><stop offset="0%" stop-color="#EC72FF" stop-opacity=".401"/><stop offset="100%" stop-color="#293F64"/></radialGradient><radialGradient id="n" cx="52.101%" cy="30.594%" r="111.316%" fx="52.101%" fy="30.594%" gradientTransform="matrix(-.43836 0 0 -.25522 .75 .384)"><stop offset="0%" stop-color="#EF05FF"/><stop offset="100%" stop-color="#FF07D4" stop-opacity=".002"/></radialGradient><radialGradient id="b" cy="0%" r="89.543%" fx="50%" fy="0%" gradientTransform="matrix(0 1 -.60481 0 .5 -.5)"><stop offset="0%" stop-color="#EC72FF"/><stop offset="100%" stop-color="#293F64"/></radialGradient><radialGradient id="J" cx="161.95%" r="346.798%" fx="161.95%" fy="50%" gradientTransform="matrix(-.39893 -.0732 .02544 -.86637 2.253 1.052)"><stop offset="0%" stop-color="#EC72FF" stop-opacity=".401"/><stop offset="100%" stop-color="#293F64"/></radialGradient><radialGradient id="r" cx="29.172%" cy="66.822%" r="81.497%" fx="29.172%" fy="66.822%" gradientTransform="scale(.89796 1) rotate(-42.098 .308 .625)"><stop offset="0%" stop-color="#2F4568"/><stop offset="100%"/></radialGradient><radialGradient id="G" cx="52.436%" cy="42.955%" r="36.114%" fx="52.436%" fy="42.955%" gradientTransform="matrix(-1 0 0 -.21136 1.049 .52)"><stop offset="0%" stop-color="#172743"/><stop offset="100%" stop-opacity="0"/></radialGradient><radialGradient id="L" cx="131.186%" r="292.186%" fx="131.186%" fy="50%" gradientTransform="matrix(.37828 -.32507 .11295 .82153 .76 .516)"><stop offset="0%" stop-color="#EC72FF" stop-opacity=".401"/><stop offset="100%" stop-color="#293F64"/></radialGradient><linearGradient id="F" x1="95.702%" x2="0%" y1="8.565%" y2="97.821%"><stop offset="0%" stop-color="#32C5FF"/><stop offset="100%" stop-color="#C700FF"/></linearGradient><linearGradient id="ab" x1="93.645%" x2="0%" y1="54.063%" y2="47.762%"><stop offset="0%" stop-color="#32C5FF" stop-opacity="0"/><stop offset="100%" stop-color="#D961FF"/></linearGradient><linearGradient id="I" x1="50%" x2="50%" y1="149.484%" y2="0%"><stop offset="0%" stop-color="#5B79A2"/><stop offset="100%" stop-color="#2E4469"/></linearGradient><linearGradient id="s" x1="18.656%" x2="92.09%" y1="18.756%" y2="86.428%"><stop offset="0%" stop-color="#2B3B6A"/><stop offset="100%" stop-color="#293F64"/></linearGradient><linearGradient id="Y" x1="42.021%" x2="0%" y1="54.514%" y2="45.486%"><stop offset="0%" stop-color="#32C5FF" stop-opacity="0"/><stop offset="100%" stop-color="#D961FF"/></linearGradient><linearGradient id="f" x1="18.656%" x2="92.09%" y1="49.669%" y2="50.385%"><stop offset="0%" stop-color="#5F80AB"/><stop offset="100%" stop-color="#293F64"/></linearGradient><linearGradient id="V" x1="42.021%" x2="0%" y1="55.222%" y2="44.778%"><stop offset="0%" stop-color="#32C5FF" stop-opacity="0"/><stop offset="100%" stop-color="#D961FF"/></linearGradient><linearGradient id="B" x1="2.894%" x2="74.271%" y1="0%" y2="122.507%"><stop offset="0%" stop-color="#B595FD"/><stop offset="100%" stop-color="#B372BD" stop-opacity="0"/></linearGradient><linearGradient id="t" x1="50%" x2="50%" y1="150.269%" y2="37.133%"><stop offset="0%" stop-color="#EC72FF"/><stop offset="100%" stop-color="#293F64"/></linearGradient><linearGradient id="E" x1="68.141%" x2="50%" y1="100%" y2="0%"><stop offset="0%" stop-color="#9A77EB"/><stop offset="100%" stop-color="#CB7DD7"/></linearGradient><linearGradient id="S" x1="11.869%" x2="90.436%" y1="52.375%" y2="48.458%"><stop offset="0%" stop-color="#32C5FF" stop-opacity="0"/><stop offset="100%" stop-color="#D961FF"/></linearGradient><path id="aa" d="M227 238v6.283h27.749v-12.164h29.746"/><path id="q" d="M162 222h68a8 8 0 110 16h-68a8 8 0 110-16z"/><path id="U" d="M184 238v25.917h22.366V254h55.878v16.477h22.25"/><path id="R" d="M167 238v11.967h-29.625V254h-15.722v-16H93.588"/><path id="X" d="M206 238v8h11v14.035h41V254h21.335"/><circle id="A" cx="66" cy="66" r="66"/><circle id="v" cx="92.5" cy="92.5" r="92.5"/><circle id="x" cx="66" cy="66" r="66"/><rect id="m" width="52" height="3.15" x="183" y="300.613" rx="1.575"/><rect id="k" width="87.15" height="3.15" x="261" y="300.613" rx="1.575"/><rect id="i" width="87.15" height="3.15" x="34.503" y="300.613" rx="1.575"/></defs><g fill="none" fill-rule="evenodd" transform="translate(36.23 60)"><ellipse cx="195.5" cy="158" fill="#EA9EFF" filter="url(#a)" rx="146" ry="131" style="mix-blend-mode:overlay"/><path fill="url(#b)" d="M84 126h223c18.778 0 34 15.222 34 34v136a6 6 0 01-6 6H56a6 6 0 01-6-6V160c0-18.778 15.222-34 34-34z"/><ellipse cx="187.875" cy="217.001" fill="url(#c)" filter="url(#d)" opacity=".783" rx="146" ry="21" transform="rotate(1 187.875 217)"/><ellipse cx="195.5" cy="218.5" fill="#FC0AFF" filter="url(#e)" opacity=".33" rx="130.5" ry="88.5" style="mix-blend-mode:overlay"/><g transform="translate(0 283)"><rect width="377" height="37" x="10" y="6" fill="#1B283E" rx="7"/><rect width="397" height="37" fill="url(#f)" rx="7"/><rect width="397" height="37" fill="url(#g)" rx="7"/></g><path fill="#000" d="M15.25 297h128.1a5.25 5.25 0 110 10.5H15.25a5.25 5.25 0 110-10.5zm238 0h128.1a5.25 5.25 0 110 10.5h-128.1a5.25 5.25 0 110-10.5zm-91 0h72.5a5.25 5.25 0 110 10.5h-72.5a5.25 5.25 0 110-10.5z"/><use fill="#000" filter="url(#h)" xlink:href="#i"/><use fill="#EECDFF" xlink:href="#i"/><use fill="#000" filter="url(#j)" xlink:href="#k"/><use fill="#EECDFF" xlink:href="#k"/><use fill="#000" filter="url(#l)" xlink:href="#m"/><use fill="#EECDFF" xlink:href="#m"/><ellipse cx="197.878" cy="253.999" fill="url(#n)" filter="url(#o)" opacity=".307" rx="146" ry="64" transform="rotate(1 197.878 253.999)"/><use fill="#000" filter="url(#p)" xlink:href="#q"/><use fill="#EECDFF" xlink:href="#q"/><rect width="245" height="220" x="75" y="9" fill="url(#r)" rx="97"/><path fill="url(#s)" d="M168.87.408A781.757 781.757 0 01194.1 0c10.74 0 21.666.222 32.778.667C278.899 2.748 320 45.527 320 97.589V125c0 53.572-43.428 97-97 97h-51c-53.572 0-97-43.428-97-97V97.357c0-52.353 41.544-95.26 93.87-96.95z"/><path fill="url(#t)" d="M168.87.408A781.757 781.757 0 01194.1 0c10.74 0 21.666.222 32.778.667C278.899 2.748 320 45.527 320 97.589V125c0 53.572-43.428 97-97 97h-51c-53.572 0-97-43.428-97-97V97.357c0-52.353 41.544-95.26 93.87-96.95z" opacity=".705"/><use fill="url(#u)" transform="translate(105 25)" xlink:href="#v"/><g opacity=".156" transform="translate(132 53)"><use fill="#000" filter="url(#w)" xlink:href="#x"/><use fill="url(#y)" xlink:href="#x"/></g><g transform="translate(132 53)"><use fill="#000" filter="url(#z)" xlink:href="#A"/><use stroke="url(#B)" stroke-width="6" xlink:href="#A"/></g><g transform="translate(83 9)"><circle cx="112.5" cy="112.5" r="81" fill="#92BAE9" filter="url(#C)" opacity=".136" style="mix-blend-mode:overlay" transform="rotate(33 112.5 112.5)"/><circle cx="112.5" cy="112.5" r="45" fill="#BC5AEC" filter="url(#D)" transform="rotate(33 112.5 112.5)"/><g transform="translate(79 74)"><circle cx="34" cy="34" r="24" fill="url(#E)" transform="scale(1 -1) rotate(37 135.615 0)"/><path fill="#FFF" fill-opacity=".4" d="M46.665 51.762c5.225-3.938 7.974-9.943 7.965-16.018a19.91 19.91 0 01-7.178 10.416c-8.821 6.647-21.36 4.885-28.008-3.936a19.911 19.911 0 01-4.028-11.99c-1.684 5.836-.697 12.366 3.24 17.591 6.648 8.822 19.188 10.584 28.009 3.937z"/></g></g><path fill="url(#F)" d="M197.5 25c37.959 0 70.577 22.864 84.835 55.572C269.053 73.2 253.767 69 237.5 69c-51.086 0-92.5 41.414-92.5 92.5 0 13.127 2.735 25.616 7.665 36.928C124.24 182.646 105 152.32 105 117.5c0-51.086 41.414-92.5 92.5-92.5z" opacity=".314"/><g transform="scale(-1 1) rotate(32 -310.949 -94.626)"><circle cx="22.888" cy="23.15" r="19.44" fill="url(#G)" filter="url(#H)" opacity=".899" transform="rotate(-81 22.888 23.15)"/><path stroke="#23334C" stroke-width="5.832" d="M33.037 26.73c8.35-2.1 29.892 5.735 38.736 16.48 7.793 9.466 4.17 21.711-3.79 28.22-18.353 15.005 2.198 26.268 7.8 35.233"/><g transform="scale(-1 1) rotate(82 -16.944 -6.85)"><rect width="13.886" height="14.58" x="5.207" y="4.86" fill="#1B283E" rx="6.943"/><rect width="24.3" height="9.72" fill="url(#I)" rx="4.86"/><rect width="24.3" height="9.72" fill="url(#J)" rx="4.86"/></g></g><g transform="rotate(32 -114.21 591.485)"><circle cx="22.888" cy="23.15" r="19.44" fill="url(#G)" filter="url(#K)" opacity=".899" transform="rotate(-81 22.888 23.15)"/><path stroke="#23334C" stroke-width="5.832" d="M33.037 26.73c8.35-2.1 23.97 2.677 32.814 13.421 7.792 9.467 1.683 17.159-5.987 24.952-14.066 14.293-5.201 28.537.4 37.501"/><g transform="scale(-1 1) rotate(82 -16.944 -6.85)"><rect width="13.886" height="14.58" x="5.207" y="4.86" fill="#1B283E" rx="6.943"/><rect width="24.3" height="9.72" fill="url(#I)" rx="4.86"/><rect width="24.3" height="9.72" fill="url(#L)" rx="4.86"/></g></g><g transform="translate(71 264)"><circle cx="20.44" cy="21.44" r="19.44" fill="url(#G)" filter="url(#M)" opacity=".899" transform="rotate(1 20.44 21.44)"/><g transform="rotate(-180 16.5 10)"><rect width="13.886" height="14.58" x="5.207" y="4.86" fill="#152032" rx="6.943"/><rect width="24.3" height="9.72" fill="url(#I)" rx="4.86"/><rect width="24.3" height="9.72" fill="url(#N)" rx="4.86"/></g></g><g transform="translate(134 264)"><circle cx="20.44" cy="21.44" r="19.44" fill="url(#G)" filter="url(#O)" opacity=".899" transform="rotate(1 20.44 21.44)"/><g transform="rotate(-180 16.5 10)"><rect width="13.886" height="14.58" x="5.207" y="4.86" fill="#152032" rx="6.943"/><rect width="24.3" height="9.72" fill="url(#I)" rx="4.86"/><rect width="24.3" height="9.72" fill="url(#N)" rx="4.86"/></g></g><g transform="translate(220 264)"><circle cx="20.44" cy="21.44" r="19.44" fill="url(#G)" filter="url(#P)" opacity=".899" transform="rotate(1 20.44 21.44)"/><g transform="rotate(-180 16.5 10)"><rect width="13.886" height="14.58" x="5.207" y="4.86" fill="#152032" rx="6.943"/><rect width="24.3" height="9.72" fill="url(#I)" rx="4.86"/><rect width="24.3" height="9.72" fill="url(#N)" rx="4.86"/></g></g><g transform="rotate(-180 152.5 142)"><rect width="13.886" height="14.58" x="5.207" y="4.86" fill="#152032" rx="6.943"/><rect width="24.3" height="9.72" fill="url(#I)" rx="4.86"/><rect width="24.3" height="9.72" fill="url(#N)" rx="4.86"/></g><g style="mix-blend-mode:overlay"><use fill="#000" filter="url(#Q)" xlink:href="#R"/><use stroke="url(#S)" stroke-width="1.843" xlink:href="#R"/></g><g style="mix-blend-mode:overlay"><use fill="#000" filter="url(#T)" xlink:href="#U"/><use stroke="url(#V)" stroke-width="1.843" xlink:href="#U"/></g><g style="mix-blend-mode:overlay"><use fill="#000" filter="url(#W)" xlink:href="#X"/><use stroke="url(#Y)" stroke-width="1.843" xlink:href="#X"/></g><g style="mix-blend-mode:overlay"><use fill="#000" filter="url(#Z)" xlink:href="#aa"/><use stroke="url(#ab)" stroke-width="1.843" xlink:href="#aa"/></g></g></svg>